<mxfile host="Electron" agent="Mozilla/5.0 (Macintosh; Intel Mac OS X 10_15_7) AppleWebKit/537.36 (KHTML, like Gecko) draw.io/24.7.8 Chrome/128.0.6613.36 Electron/32.0.1 Safari/537.36" version="24.7.8">
  <diagram name="Page-1" id="6J8VFE3zgtzyVrTEK9vQ">
    <mxGraphModel dx="1060" dy="671" grid="1" gridSize="10" guides="1" tooltips="1" connect="1" arrows="1" fold="1" page="1" pageScale="1" pageWidth="850" pageHeight="1100" math="0" shadow="0">
      <root>
        <mxCell id="0" />
        <mxCell id="1" parent="0" />
        <mxCell id="VMh6JowCz2_6mpAM9rTz-265" value="" style="rounded=0;whiteSpace=wrap;html=1;fillColor=#FFFFFF;strokeColor=#000000;" vertex="1" parent="1">
          <mxGeometry x="450" y="465" width="410" height="355" as="geometry" />
        </mxCell>
        <mxCell id="VMh6JowCz2_6mpAM9rTz-92" value="" style="rounded=0;whiteSpace=wrap;html=1;fillColor=#FFFFFF;strokeColor=#000000;" vertex="1" parent="1">
          <mxGeometry x="40" y="465" width="410" height="355" as="geometry" />
        </mxCell>
        <mxCell id="VMh6JowCz2_6mpAM9rTz-34" value="" style="ellipse;whiteSpace=wrap;html=1;aspect=fixed;strokeColor=#000000;" vertex="1" parent="1">
          <mxGeometry x="360" y="620" width="40" height="40" as="geometry" />
        </mxCell>
        <mxCell id="VMh6JowCz2_6mpAM9rTz-35" value="" style="ellipse;whiteSpace=wrap;html=1;aspect=fixed;strokeColor=#000000;" vertex="1" parent="1">
          <mxGeometry x="290" y="570" width="40" height="40" as="geometry" />
        </mxCell>
        <mxCell id="VMh6JowCz2_6mpAM9rTz-36" value="" style="ellipse;whiteSpace=wrap;html=1;aspect=fixed;strokeColor=#000000;" vertex="1" parent="1">
          <mxGeometry x="290" y="620" width="40" height="40" as="geometry" />
        </mxCell>
        <mxCell id="VMh6JowCz2_6mpAM9rTz-37" value="" style="ellipse;whiteSpace=wrap;html=1;aspect=fixed;strokeColor=#000000;" vertex="1" parent="1">
          <mxGeometry x="290" y="670" width="40" height="40" as="geometry" />
        </mxCell>
        <mxCell id="VMh6JowCz2_6mpAM9rTz-38" value="" style="endArrow=classic;html=1;rounded=0;exitX=1;exitY=0.5;exitDx=0;exitDy=0;entryX=0;entryY=0.5;entryDx=0;entryDy=0;strokeColor=#000000;" edge="1" parent="1" source="VMh6JowCz2_6mpAM9rTz-35" target="VMh6JowCz2_6mpAM9rTz-34">
          <mxGeometry width="50" height="50" relative="1" as="geometry">
            <mxPoint x="410" y="490" as="sourcePoint" />
            <mxPoint x="460" y="440" as="targetPoint" />
          </mxGeometry>
        </mxCell>
        <mxCell id="VMh6JowCz2_6mpAM9rTz-39" value="" style="endArrow=classic;html=1;rounded=0;exitX=1;exitY=0.5;exitDx=0;exitDy=0;entryX=0;entryY=0.5;entryDx=0;entryDy=0;strokeColor=#000000;" edge="1" parent="1" source="VMh6JowCz2_6mpAM9rTz-36" target="VMh6JowCz2_6mpAM9rTz-34">
          <mxGeometry width="50" height="50" relative="1" as="geometry">
            <mxPoint x="320" y="600" as="sourcePoint" />
            <mxPoint x="340" y="650" as="targetPoint" />
          </mxGeometry>
        </mxCell>
        <mxCell id="VMh6JowCz2_6mpAM9rTz-40" value="" style="endArrow=classic;html=1;rounded=0;exitX=1;exitY=0.5;exitDx=0;exitDy=0;entryX=0;entryY=0.5;entryDx=0;entryDy=0;strokeColor=#000000;" edge="1" parent="1" source="VMh6JowCz2_6mpAM9rTz-37" target="VMh6JowCz2_6mpAM9rTz-34">
          <mxGeometry width="50" height="50" relative="1" as="geometry">
            <mxPoint x="320" y="600" as="sourcePoint" />
            <mxPoint x="340" y="650" as="targetPoint" />
          </mxGeometry>
        </mxCell>
        <mxCell id="VMh6JowCz2_6mpAM9rTz-41" value="" style="ellipse;whiteSpace=wrap;html=1;aspect=fixed;strokeColor=#000000;" vertex="1" parent="1">
          <mxGeometry x="220" y="545" width="40" height="40" as="geometry" />
        </mxCell>
        <mxCell id="VMh6JowCz2_6mpAM9rTz-42" value="" style="ellipse;whiteSpace=wrap;html=1;aspect=fixed;strokeColor=#000000;" vertex="1" parent="1">
          <mxGeometry x="220" y="595" width="40" height="40" as="geometry" />
        </mxCell>
        <mxCell id="VMh6JowCz2_6mpAM9rTz-43" value="" style="ellipse;whiteSpace=wrap;html=1;aspect=fixed;strokeColor=#000000;" vertex="1" parent="1">
          <mxGeometry x="220" y="645" width="40" height="40" as="geometry" />
        </mxCell>
        <mxCell id="VMh6JowCz2_6mpAM9rTz-44" value="" style="ellipse;whiteSpace=wrap;html=1;aspect=fixed;strokeColor=#000000;" vertex="1" parent="1">
          <mxGeometry x="220" y="695" width="40" height="40" as="geometry" />
        </mxCell>
        <mxCell id="VMh6JowCz2_6mpAM9rTz-45" value="" style="endArrow=classic;html=1;rounded=0;exitX=1;exitY=0.5;exitDx=0;exitDy=0;entryX=0;entryY=0.5;entryDx=0;entryDy=0;strokeColor=#000000;" edge="1" parent="1" source="VMh6JowCz2_6mpAM9rTz-41" target="VMh6JowCz2_6mpAM9rTz-35">
          <mxGeometry width="50" height="50" relative="1" as="geometry">
            <mxPoint x="410" y="490" as="sourcePoint" />
            <mxPoint x="460" y="440" as="targetPoint" />
          </mxGeometry>
        </mxCell>
        <mxCell id="VMh6JowCz2_6mpAM9rTz-46" value="" style="endArrow=classic;html=1;rounded=0;exitX=1;exitY=0.5;exitDx=0;exitDy=0;entryX=0;entryY=0.5;entryDx=0;entryDy=0;strokeColor=#000000;" edge="1" parent="1" source="VMh6JowCz2_6mpAM9rTz-42" target="VMh6JowCz2_6mpAM9rTz-35">
          <mxGeometry width="50" height="50" relative="1" as="geometry">
            <mxPoint x="270" y="575" as="sourcePoint" />
            <mxPoint x="280" y="600" as="targetPoint" />
          </mxGeometry>
        </mxCell>
        <mxCell id="VMh6JowCz2_6mpAM9rTz-47" value="" style="endArrow=classic;html=1;rounded=0;exitX=1;exitY=0.5;exitDx=0;exitDy=0;entryX=0;entryY=0.5;entryDx=0;entryDy=0;strokeColor=#000000;" edge="1" parent="1" source="VMh6JowCz2_6mpAM9rTz-43" target="VMh6JowCz2_6mpAM9rTz-35">
          <mxGeometry width="50" height="50" relative="1" as="geometry">
            <mxPoint x="270" y="625" as="sourcePoint" />
            <mxPoint x="280" y="600" as="targetPoint" />
          </mxGeometry>
        </mxCell>
        <mxCell id="VMh6JowCz2_6mpAM9rTz-48" value="" style="endArrow=classic;html=1;rounded=0;exitX=1;exitY=0.5;exitDx=0;exitDy=0;entryX=0;entryY=0.5;entryDx=0;entryDy=0;strokeColor=#000000;" edge="1" parent="1" source="VMh6JowCz2_6mpAM9rTz-44" target="VMh6JowCz2_6mpAM9rTz-35">
          <mxGeometry width="50" height="50" relative="1" as="geometry">
            <mxPoint x="270" y="675" as="sourcePoint" />
            <mxPoint x="280" y="600" as="targetPoint" />
          </mxGeometry>
        </mxCell>
        <mxCell id="VMh6JowCz2_6mpAM9rTz-49" value="" style="endArrow=classic;html=1;rounded=0;exitX=1;exitY=0.5;exitDx=0;exitDy=0;entryX=0;entryY=0.5;entryDx=0;entryDy=0;strokeColor=#000000;" edge="1" parent="1" source="VMh6JowCz2_6mpAM9rTz-41" target="VMh6JowCz2_6mpAM9rTz-36">
          <mxGeometry width="50" height="50" relative="1" as="geometry">
            <mxPoint x="280" y="685" as="sourcePoint" />
            <mxPoint x="290" y="610" as="targetPoint" />
          </mxGeometry>
        </mxCell>
        <mxCell id="VMh6JowCz2_6mpAM9rTz-50" value="" style="endArrow=classic;html=1;rounded=0;exitX=1;exitY=0.5;exitDx=0;exitDy=0;entryX=0;entryY=0.5;entryDx=0;entryDy=0;strokeColor=#000000;" edge="1" parent="1" source="VMh6JowCz2_6mpAM9rTz-41" target="VMh6JowCz2_6mpAM9rTz-37">
          <mxGeometry width="50" height="50" relative="1" as="geometry">
            <mxPoint x="270" y="575" as="sourcePoint" />
            <mxPoint x="280" y="650" as="targetPoint" />
          </mxGeometry>
        </mxCell>
        <mxCell id="VMh6JowCz2_6mpAM9rTz-51" value="" style="endArrow=classic;html=1;rounded=0;exitX=1;exitY=0.5;exitDx=0;exitDy=0;entryX=0;entryY=0.5;entryDx=0;entryDy=0;strokeColor=#000000;" edge="1" parent="1" source="VMh6JowCz2_6mpAM9rTz-42" target="VMh6JowCz2_6mpAM9rTz-36">
          <mxGeometry width="50" height="50" relative="1" as="geometry">
            <mxPoint x="270" y="575" as="sourcePoint" />
            <mxPoint x="280" y="700" as="targetPoint" />
          </mxGeometry>
        </mxCell>
        <mxCell id="VMh6JowCz2_6mpAM9rTz-52" value="" style="endArrow=classic;html=1;rounded=0;exitX=1;exitY=0.5;exitDx=0;exitDy=0;entryX=0;entryY=0.5;entryDx=0;entryDy=0;strokeColor=#000000;" edge="1" parent="1" source="VMh6JowCz2_6mpAM9rTz-42" target="VMh6JowCz2_6mpAM9rTz-37">
          <mxGeometry width="50" height="50" relative="1" as="geometry">
            <mxPoint x="270" y="625" as="sourcePoint" />
            <mxPoint x="280" y="650" as="targetPoint" />
          </mxGeometry>
        </mxCell>
        <mxCell id="VMh6JowCz2_6mpAM9rTz-53" value="" style="endArrow=classic;html=1;rounded=0;exitX=1;exitY=0.5;exitDx=0;exitDy=0;entryX=0;entryY=0.5;entryDx=0;entryDy=0;strokeColor=#000000;" edge="1" parent="1" source="VMh6JowCz2_6mpAM9rTz-43" target="VMh6JowCz2_6mpAM9rTz-36">
          <mxGeometry width="50" height="50" relative="1" as="geometry">
            <mxPoint x="270" y="625" as="sourcePoint" />
            <mxPoint x="280" y="700" as="targetPoint" />
          </mxGeometry>
        </mxCell>
        <mxCell id="VMh6JowCz2_6mpAM9rTz-54" value="" style="endArrow=classic;html=1;rounded=0;exitX=1;exitY=0.5;exitDx=0;exitDy=0;entryX=0;entryY=0.5;entryDx=0;entryDy=0;strokeColor=#000000;" edge="1" parent="1" source="VMh6JowCz2_6mpAM9rTz-43" target="VMh6JowCz2_6mpAM9rTz-37">
          <mxGeometry width="50" height="50" relative="1" as="geometry">
            <mxPoint x="270" y="675" as="sourcePoint" />
            <mxPoint x="280" y="650" as="targetPoint" />
          </mxGeometry>
        </mxCell>
        <mxCell id="VMh6JowCz2_6mpAM9rTz-55" value="" style="endArrow=classic;html=1;rounded=0;exitX=1;exitY=0.5;exitDx=0;exitDy=0;entryX=0;entryY=0.5;entryDx=0;entryDy=0;strokeColor=#000000;" edge="1" parent="1" source="VMh6JowCz2_6mpAM9rTz-44" target="VMh6JowCz2_6mpAM9rTz-37">
          <mxGeometry width="50" height="50" relative="1" as="geometry">
            <mxPoint x="270" y="675" as="sourcePoint" />
            <mxPoint x="280" y="700" as="targetPoint" />
          </mxGeometry>
        </mxCell>
        <mxCell id="VMh6JowCz2_6mpAM9rTz-56" value="" style="endArrow=classic;html=1;rounded=0;exitX=1;exitY=0.5;exitDx=0;exitDy=0;entryX=0;entryY=0.5;entryDx=0;entryDy=0;strokeColor=#000000;" edge="1" parent="1" source="VMh6JowCz2_6mpAM9rTz-44" target="VMh6JowCz2_6mpAM9rTz-36">
          <mxGeometry width="50" height="50" relative="1" as="geometry">
            <mxPoint x="270" y="725" as="sourcePoint" />
            <mxPoint x="280" y="700" as="targetPoint" />
          </mxGeometry>
        </mxCell>
        <mxCell id="VMh6JowCz2_6mpAM9rTz-57" value="" style="ellipse;whiteSpace=wrap;html=1;aspect=fixed;strokeColor=#000000;" vertex="1" parent="1">
          <mxGeometry x="150" y="570" width="40" height="40" as="geometry" />
        </mxCell>
        <mxCell id="VMh6JowCz2_6mpAM9rTz-58" value="" style="ellipse;whiteSpace=wrap;html=1;aspect=fixed;strokeColor=#000000;" vertex="1" parent="1">
          <mxGeometry x="150" y="620" width="40" height="40" as="geometry" />
        </mxCell>
        <mxCell id="VMh6JowCz2_6mpAM9rTz-59" value="" style="ellipse;whiteSpace=wrap;html=1;aspect=fixed;strokeColor=#000000;" vertex="1" parent="1">
          <mxGeometry x="150" y="670" width="40" height="40" as="geometry" />
        </mxCell>
        <mxCell id="VMh6JowCz2_6mpAM9rTz-60" value="" style="endArrow=classic;html=1;rounded=0;exitX=1;exitY=0.5;exitDx=0;exitDy=0;entryX=0;entryY=0.5;entryDx=0;entryDy=0;strokeColor=#000000;" edge="1" parent="1" source="VMh6JowCz2_6mpAM9rTz-57" target="VMh6JowCz2_6mpAM9rTz-41">
          <mxGeometry width="50" height="50" relative="1" as="geometry">
            <mxPoint x="260" y="650" as="sourcePoint" />
            <mxPoint x="310" y="600" as="targetPoint" />
          </mxGeometry>
        </mxCell>
        <mxCell id="VMh6JowCz2_6mpAM9rTz-61" value="" style="endArrow=classic;html=1;rounded=0;exitX=1;exitY=0.5;exitDx=0;exitDy=0;entryX=0;entryY=0.5;entryDx=0;entryDy=0;strokeColor=#000000;" edge="1" parent="1" source="VMh6JowCz2_6mpAM9rTz-57" target="VMh6JowCz2_6mpAM9rTz-42">
          <mxGeometry width="50" height="50" relative="1" as="geometry">
            <mxPoint x="200" y="600" as="sourcePoint" />
            <mxPoint x="230" y="575" as="targetPoint" />
          </mxGeometry>
        </mxCell>
        <mxCell id="VMh6JowCz2_6mpAM9rTz-62" value="" style="endArrow=classic;html=1;rounded=0;exitX=1;exitY=0.5;exitDx=0;exitDy=0;entryX=0;entryY=0.5;entryDx=0;entryDy=0;strokeColor=#000000;" edge="1" parent="1" source="VMh6JowCz2_6mpAM9rTz-57" target="VMh6JowCz2_6mpAM9rTz-43">
          <mxGeometry width="50" height="50" relative="1" as="geometry">
            <mxPoint x="200" y="600" as="sourcePoint" />
            <mxPoint x="230" y="625" as="targetPoint" />
          </mxGeometry>
        </mxCell>
        <mxCell id="VMh6JowCz2_6mpAM9rTz-63" value="" style="endArrow=classic;html=1;rounded=0;exitX=1;exitY=0.5;exitDx=0;exitDy=0;entryX=0;entryY=0.5;entryDx=0;entryDy=0;strokeColor=#000000;" edge="1" parent="1" source="VMh6JowCz2_6mpAM9rTz-57" target="VMh6JowCz2_6mpAM9rTz-44">
          <mxGeometry width="50" height="50" relative="1" as="geometry">
            <mxPoint x="200" y="600" as="sourcePoint" />
            <mxPoint x="230" y="675" as="targetPoint" />
          </mxGeometry>
        </mxCell>
        <mxCell id="VMh6JowCz2_6mpAM9rTz-64" value="" style="endArrow=classic;html=1;rounded=0;exitX=1;exitY=0.5;exitDx=0;exitDy=0;entryX=0;entryY=0.5;entryDx=0;entryDy=0;strokeColor=#000000;" edge="1" parent="1" source="VMh6JowCz2_6mpAM9rTz-58" target="VMh6JowCz2_6mpAM9rTz-41">
          <mxGeometry width="50" height="50" relative="1" as="geometry">
            <mxPoint x="200" y="600" as="sourcePoint" />
            <mxPoint x="230" y="725" as="targetPoint" />
          </mxGeometry>
        </mxCell>
        <mxCell id="VMh6JowCz2_6mpAM9rTz-65" value="" style="endArrow=classic;html=1;rounded=0;exitX=1;exitY=0.5;exitDx=0;exitDy=0;entryX=0;entryY=0.5;entryDx=0;entryDy=0;strokeColor=#000000;" edge="1" parent="1" source="VMh6JowCz2_6mpAM9rTz-58" target="VMh6JowCz2_6mpAM9rTz-42">
          <mxGeometry width="50" height="50" relative="1" as="geometry">
            <mxPoint x="200" y="650" as="sourcePoint" />
            <mxPoint x="230" y="575" as="targetPoint" />
          </mxGeometry>
        </mxCell>
        <mxCell id="VMh6JowCz2_6mpAM9rTz-66" value="" style="endArrow=classic;html=1;rounded=0;exitX=1;exitY=0.5;exitDx=0;exitDy=0;entryX=0;entryY=0.5;entryDx=0;entryDy=0;strokeColor=#000000;" edge="1" parent="1" source="VMh6JowCz2_6mpAM9rTz-58" target="VMh6JowCz2_6mpAM9rTz-43">
          <mxGeometry width="50" height="50" relative="1" as="geometry">
            <mxPoint x="200" y="650" as="sourcePoint" />
            <mxPoint x="230" y="625" as="targetPoint" />
          </mxGeometry>
        </mxCell>
        <mxCell id="VMh6JowCz2_6mpAM9rTz-67" value="" style="endArrow=classic;html=1;rounded=0;exitX=1;exitY=0.5;exitDx=0;exitDy=0;entryX=0;entryY=0.5;entryDx=0;entryDy=0;strokeColor=#000000;" edge="1" parent="1" source="VMh6JowCz2_6mpAM9rTz-58" target="VMh6JowCz2_6mpAM9rTz-44">
          <mxGeometry width="50" height="50" relative="1" as="geometry">
            <mxPoint x="200" y="650" as="sourcePoint" />
            <mxPoint x="230" y="675" as="targetPoint" />
          </mxGeometry>
        </mxCell>
        <mxCell id="VMh6JowCz2_6mpAM9rTz-68" value="" style="endArrow=classic;html=1;rounded=0;exitX=1;exitY=0.5;exitDx=0;exitDy=0;entryX=0;entryY=0.5;entryDx=0;entryDy=0;strokeColor=#000000;" edge="1" parent="1" source="VMh6JowCz2_6mpAM9rTz-59" target="VMh6JowCz2_6mpAM9rTz-44">
          <mxGeometry width="50" height="50" relative="1" as="geometry">
            <mxPoint x="200" y="650" as="sourcePoint" />
            <mxPoint x="230" y="725" as="targetPoint" />
          </mxGeometry>
        </mxCell>
        <mxCell id="VMh6JowCz2_6mpAM9rTz-69" value="" style="endArrow=classic;html=1;rounded=0;exitX=1;exitY=0.5;exitDx=0;exitDy=0;entryX=0;entryY=0.5;entryDx=0;entryDy=0;strokeColor=#000000;" edge="1" parent="1" source="VMh6JowCz2_6mpAM9rTz-59" target="VMh6JowCz2_6mpAM9rTz-43">
          <mxGeometry width="50" height="50" relative="1" as="geometry">
            <mxPoint x="200" y="700" as="sourcePoint" />
            <mxPoint x="230" y="725" as="targetPoint" />
          </mxGeometry>
        </mxCell>
        <mxCell id="VMh6JowCz2_6mpAM9rTz-70" value="" style="endArrow=classic;html=1;rounded=0;exitX=1;exitY=0.5;exitDx=0;exitDy=0;entryX=0;entryY=0.5;entryDx=0;entryDy=0;strokeColor=#000000;" edge="1" parent="1" source="VMh6JowCz2_6mpAM9rTz-59" target="VMh6JowCz2_6mpAM9rTz-42">
          <mxGeometry width="50" height="50" relative="1" as="geometry">
            <mxPoint x="200" y="700" as="sourcePoint" />
            <mxPoint x="230" y="675" as="targetPoint" />
          </mxGeometry>
        </mxCell>
        <mxCell id="VMh6JowCz2_6mpAM9rTz-71" value="" style="endArrow=classic;html=1;rounded=0;exitX=1;exitY=0.5;exitDx=0;exitDy=0;entryX=0;entryY=0.5;entryDx=0;entryDy=0;strokeColor=#000000;" edge="1" parent="1" source="VMh6JowCz2_6mpAM9rTz-59" target="VMh6JowCz2_6mpAM9rTz-41">
          <mxGeometry width="50" height="50" relative="1" as="geometry">
            <mxPoint x="200" y="700" as="sourcePoint" />
            <mxPoint x="230" y="625" as="targetPoint" />
          </mxGeometry>
        </mxCell>
        <mxCell id="VMh6JowCz2_6mpAM9rTz-72" value="" style="ellipse;whiteSpace=wrap;html=1;aspect=fixed;strokeColor=#000000;" vertex="1" parent="1">
          <mxGeometry x="80" y="570" width="40" height="40" as="geometry" />
        </mxCell>
        <mxCell id="VMh6JowCz2_6mpAM9rTz-73" value="" style="ellipse;whiteSpace=wrap;html=1;aspect=fixed;strokeColor=#000000;" vertex="1" parent="1">
          <mxGeometry x="80" y="620" width="40" height="40" as="geometry" />
        </mxCell>
        <mxCell id="VMh6JowCz2_6mpAM9rTz-74" value="" style="ellipse;whiteSpace=wrap;html=1;aspect=fixed;strokeColor=#000000;" vertex="1" parent="1">
          <mxGeometry x="80" y="670" width="40" height="40" as="geometry" />
        </mxCell>
        <mxCell id="VMh6JowCz2_6mpAM9rTz-75" value="" style="endArrow=classic;html=1;rounded=0;exitX=1;exitY=0.5;exitDx=0;exitDy=0;entryX=0;entryY=0.5;entryDx=0;entryDy=0;strokeColor=#000000;" edge="1" parent="1" source="VMh6JowCz2_6mpAM9rTz-72" target="VMh6JowCz2_6mpAM9rTz-57">
          <mxGeometry width="50" height="50" relative="1" as="geometry">
            <mxPoint x="180" y="650" as="sourcePoint" />
            <mxPoint x="230" y="600" as="targetPoint" />
          </mxGeometry>
        </mxCell>
        <mxCell id="VMh6JowCz2_6mpAM9rTz-76" value="" style="endArrow=classic;html=1;rounded=0;exitX=1;exitY=0.5;exitDx=0;exitDy=0;entryX=0;entryY=0.5;entryDx=0;entryDy=0;strokeColor=#000000;" edge="1" parent="1" source="VMh6JowCz2_6mpAM9rTz-72" target="VMh6JowCz2_6mpAM9rTz-58">
          <mxGeometry width="50" height="50" relative="1" as="geometry">
            <mxPoint x="130" y="600" as="sourcePoint" />
            <mxPoint x="160" y="600" as="targetPoint" />
          </mxGeometry>
        </mxCell>
        <mxCell id="VMh6JowCz2_6mpAM9rTz-77" value="" style="endArrow=classic;html=1;rounded=0;exitX=1;exitY=0.5;exitDx=0;exitDy=0;entryX=0;entryY=0.5;entryDx=0;entryDy=0;strokeColor=#000000;" edge="1" parent="1" source="VMh6JowCz2_6mpAM9rTz-72" target="VMh6JowCz2_6mpAM9rTz-59">
          <mxGeometry width="50" height="50" relative="1" as="geometry">
            <mxPoint x="130" y="600" as="sourcePoint" />
            <mxPoint x="160" y="650" as="targetPoint" />
          </mxGeometry>
        </mxCell>
        <mxCell id="VMh6JowCz2_6mpAM9rTz-78" value="" style="endArrow=classic;html=1;rounded=0;exitX=1;exitY=0.5;exitDx=0;exitDy=0;entryX=0;entryY=0.5;entryDx=0;entryDy=0;strokeColor=#000000;" edge="1" parent="1" source="VMh6JowCz2_6mpAM9rTz-73" target="VMh6JowCz2_6mpAM9rTz-58">
          <mxGeometry width="50" height="50" relative="1" as="geometry">
            <mxPoint x="130" y="600" as="sourcePoint" />
            <mxPoint x="160" y="700" as="targetPoint" />
          </mxGeometry>
        </mxCell>
        <mxCell id="VMh6JowCz2_6mpAM9rTz-79" value="" style="endArrow=classic;html=1;rounded=0;exitX=1;exitY=0.5;exitDx=0;exitDy=0;entryX=0;entryY=0.5;entryDx=0;entryDy=0;strokeColor=#000000;" edge="1" parent="1" source="VMh6JowCz2_6mpAM9rTz-73" target="VMh6JowCz2_6mpAM9rTz-57">
          <mxGeometry width="50" height="50" relative="1" as="geometry">
            <mxPoint x="130" y="650" as="sourcePoint" />
            <mxPoint x="160" y="650" as="targetPoint" />
          </mxGeometry>
        </mxCell>
        <mxCell id="VMh6JowCz2_6mpAM9rTz-80" value="" style="endArrow=classic;html=1;rounded=0;exitX=1;exitY=0.5;exitDx=0;exitDy=0;entryX=0;entryY=0.5;entryDx=0;entryDy=0;strokeColor=#000000;" edge="1" parent="1" source="VMh6JowCz2_6mpAM9rTz-73" target="VMh6JowCz2_6mpAM9rTz-59">
          <mxGeometry width="50" height="50" relative="1" as="geometry">
            <mxPoint x="130" y="650" as="sourcePoint" />
            <mxPoint x="160" y="600" as="targetPoint" />
          </mxGeometry>
        </mxCell>
        <mxCell id="VMh6JowCz2_6mpAM9rTz-81" value="" style="endArrow=classic;html=1;rounded=0;exitX=1;exitY=0.5;exitDx=0;exitDy=0;entryX=0;entryY=0.5;entryDx=0;entryDy=0;strokeColor=#000000;" edge="1" parent="1" source="VMh6JowCz2_6mpAM9rTz-74" target="VMh6JowCz2_6mpAM9rTz-59">
          <mxGeometry width="50" height="50" relative="1" as="geometry">
            <mxPoint x="130" y="650" as="sourcePoint" />
            <mxPoint x="160" y="700" as="targetPoint" />
          </mxGeometry>
        </mxCell>
        <mxCell id="VMh6JowCz2_6mpAM9rTz-82" value="" style="endArrow=classic;html=1;rounded=0;exitX=1;exitY=0.5;exitDx=0;exitDy=0;entryX=0;entryY=0.5;entryDx=0;entryDy=0;strokeColor=#000000;" edge="1" parent="1" source="VMh6JowCz2_6mpAM9rTz-74" target="VMh6JowCz2_6mpAM9rTz-58">
          <mxGeometry width="50" height="50" relative="1" as="geometry">
            <mxPoint x="130" y="700" as="sourcePoint" />
            <mxPoint x="160" y="700" as="targetPoint" />
          </mxGeometry>
        </mxCell>
        <mxCell id="VMh6JowCz2_6mpAM9rTz-83" value="" style="endArrow=classic;html=1;rounded=0;exitX=1;exitY=0.5;exitDx=0;exitDy=0;entryX=0;entryY=0.5;entryDx=0;entryDy=0;strokeColor=#000000;" edge="1" parent="1" source="VMh6JowCz2_6mpAM9rTz-74" target="VMh6JowCz2_6mpAM9rTz-57">
          <mxGeometry width="50" height="50" relative="1" as="geometry">
            <mxPoint x="130" y="700" as="sourcePoint" />
            <mxPoint x="160" y="650" as="targetPoint" />
          </mxGeometry>
        </mxCell>
        <mxCell id="VMh6JowCz2_6mpAM9rTz-84" value="" style="shape=curlyBracket;whiteSpace=wrap;html=1;rounded=1;flipH=1;labelPosition=right;verticalLabelPosition=middle;align=left;verticalAlign=middle;rotation=-90;strokeColor=#000000;" vertex="1" parent="1">
          <mxGeometry x="232.5" y="432.5" width="20" height="185" as="geometry" />
        </mxCell>
        <mxCell id="VMh6JowCz2_6mpAM9rTz-85" value="Hidden Layers" style="text;html=1;align=center;verticalAlign=middle;whiteSpace=wrap;rounded=0;strokeColor=none;fontColor=#000000;" vertex="1" parent="1">
          <mxGeometry x="183.75" y="480" width="117.5" height="30" as="geometry" />
        </mxCell>
        <mxCell id="VMh6JowCz2_6mpAM9rTz-87" value="" style="shape=curlyBracket;whiteSpace=wrap;html=1;rounded=1;flipH=1;labelPosition=right;verticalLabelPosition=middle;align=left;verticalAlign=middle;rotation=90;strokeColor=#000000;" vertex="1" parent="1">
          <mxGeometry x="92.5" y="710" width="20" height="60" as="geometry" />
        </mxCell>
        <mxCell id="VMh6JowCz2_6mpAM9rTz-88" value="Input Layer" style="text;html=1;align=center;verticalAlign=middle;whiteSpace=wrap;rounded=0;strokeColor=none;fontColor=#000000;" vertex="1" parent="1">
          <mxGeometry x="41.25" y="770" width="117.5" height="30" as="geometry" />
        </mxCell>
        <mxCell id="VMh6JowCz2_6mpAM9rTz-89" value="Log-Odds Output&lt;div&gt;Layer&lt;/div&gt;" style="text;html=1;align=center;verticalAlign=middle;whiteSpace=wrap;rounded=0;strokeColor=none;fontColor=#000000;" vertex="1" parent="1">
          <mxGeometry x="321.25" y="770" width="117.5" height="30" as="geometry" />
        </mxCell>
        <mxCell id="VMh6JowCz2_6mpAM9rTz-90" value="" style="shape=curlyBracket;whiteSpace=wrap;html=1;rounded=1;flipH=1;labelPosition=right;verticalLabelPosition=middle;align=left;verticalAlign=middle;rotation=90;strokeColor=#000000;" vertex="1" parent="1">
          <mxGeometry x="370" y="710" width="20" height="60" as="geometry" />
        </mxCell>
        <mxCell id="VMh6JowCz2_6mpAM9rTz-93" value="Log Odds&lt;div&gt;Model&lt;/div&gt;" style="text;html=1;align=center;verticalAlign=middle;whiteSpace=wrap;rounded=0;strokeColor=none;fontColor=#000000;" vertex="1" parent="1">
          <mxGeometry x="50" y="475" width="80" height="40" as="geometry" />
        </mxCell>
        <mxCell id="VMh6JowCz2_6mpAM9rTz-95" value="" style="ellipse;whiteSpace=wrap;html=1;aspect=fixed;strokeColor=#000000;" vertex="1" parent="1">
          <mxGeometry x="756.5" y="539" width="40" height="40" as="geometry" />
        </mxCell>
        <mxCell id="VMh6JowCz2_6mpAM9rTz-96" value="" style="ellipse;whiteSpace=wrap;html=1;aspect=fixed;strokeColor=#000000;" vertex="1" parent="1">
          <mxGeometry x="756.5" y="619" width="40" height="40" as="geometry" />
        </mxCell>
        <mxCell id="VMh6JowCz2_6mpAM9rTz-97" value="" style="ellipse;whiteSpace=wrap;html=1;aspect=fixed;strokeColor=#000000;" vertex="1" parent="1">
          <mxGeometry x="756.5" y="699" width="40" height="40" as="geometry" />
        </mxCell>
        <mxCell id="VMh6JowCz2_6mpAM9rTz-148" value="" style="group;strokeColor=none;" vertex="1" connectable="0" parent="1">
          <mxGeometry x="619.5" y="526.5" width="109.48" height="65" as="geometry" />
        </mxCell>
        <mxCell id="VMh6JowCz2_6mpAM9rTz-98" value="" style="ellipse;whiteSpace=wrap;html=1;aspect=fixed;strokeColor=#000000;" vertex="1" parent="VMh6JowCz2_6mpAM9rTz-148">
          <mxGeometry x="95.79499999999999" y="25.657894736842106" width="13.68421052631579" height="13.68421052631579" as="geometry" />
        </mxCell>
        <mxCell id="VMh6JowCz2_6mpAM9rTz-99" value="" style="ellipse;whiteSpace=wrap;html=1;aspect=fixed;strokeColor=#000000;" vertex="1" parent="VMh6JowCz2_6mpAM9rTz-148">
          <mxGeometry x="71.84625" y="8.552631578947368" width="13.68421052631579" height="13.68421052631579" as="geometry" />
        </mxCell>
        <mxCell id="VMh6JowCz2_6mpAM9rTz-100" value="" style="ellipse;whiteSpace=wrap;html=1;aspect=fixed;strokeColor=#000000;" vertex="1" parent="VMh6JowCz2_6mpAM9rTz-148">
          <mxGeometry x="71.84625" y="25.657894736842106" width="13.68421052631579" height="13.68421052631579" as="geometry" />
        </mxCell>
        <mxCell id="VMh6JowCz2_6mpAM9rTz-101" value="" style="ellipse;whiteSpace=wrap;html=1;aspect=fixed;strokeColor=#000000;" vertex="1" parent="VMh6JowCz2_6mpAM9rTz-148">
          <mxGeometry x="71.84625" y="42.763157894736835" width="13.68421052631579" height="13.68421052631579" as="geometry" />
        </mxCell>
        <mxCell id="VMh6JowCz2_6mpAM9rTz-102" value="" style="endArrow=classic;html=1;rounded=0;exitX=1;exitY=0.5;exitDx=0;exitDy=0;entryX=0;entryY=0.5;entryDx=0;entryDy=0;strokeColor=#000000;" edge="1" parent="VMh6JowCz2_6mpAM9rTz-148" source="VMh6JowCz2_6mpAM9rTz-99" target="VMh6JowCz2_6mpAM9rTz-98">
          <mxGeometry width="50" height="50" relative="1" as="geometry">
            <mxPoint x="112.90125" y="-18.81578947368421" as="sourcePoint" />
            <mxPoint x="130.0075" y="-35.921052631578945" as="targetPoint" />
          </mxGeometry>
        </mxCell>
        <mxCell id="VMh6JowCz2_6mpAM9rTz-103" value="" style="endArrow=classic;html=1;rounded=0;exitX=1;exitY=0.5;exitDx=0;exitDy=0;entryX=0;entryY=0.5;entryDx=0;entryDy=0;strokeColor=#000000;" edge="1" parent="VMh6JowCz2_6mpAM9rTz-148" source="VMh6JowCz2_6mpAM9rTz-100" target="VMh6JowCz2_6mpAM9rTz-98">
          <mxGeometry width="50" height="50" relative="1" as="geometry">
            <mxPoint x="82.11" y="18.81578947368421" as="sourcePoint" />
            <mxPoint x="88.9525" y="35.921052631578945" as="targetPoint" />
          </mxGeometry>
        </mxCell>
        <mxCell id="VMh6JowCz2_6mpAM9rTz-104" value="" style="endArrow=classic;html=1;rounded=0;exitX=1;exitY=0.5;exitDx=0;exitDy=0;entryX=0;entryY=0.5;entryDx=0;entryDy=0;strokeColor=#000000;" edge="1" parent="VMh6JowCz2_6mpAM9rTz-148" source="VMh6JowCz2_6mpAM9rTz-101" target="VMh6JowCz2_6mpAM9rTz-98">
          <mxGeometry width="50" height="50" relative="1" as="geometry">
            <mxPoint x="82.11" y="18.81578947368421" as="sourcePoint" />
            <mxPoint x="88.9525" y="35.921052631578945" as="targetPoint" />
          </mxGeometry>
        </mxCell>
        <mxCell id="VMh6JowCz2_6mpAM9rTz-105" value="" style="ellipse;whiteSpace=wrap;html=1;aspect=fixed;strokeColor=#000000;" vertex="1" parent="VMh6JowCz2_6mpAM9rTz-148">
          <mxGeometry x="47.897499999999994" width="13.68421052631579" height="13.68421052631579" as="geometry" />
        </mxCell>
        <mxCell id="VMh6JowCz2_6mpAM9rTz-106" value="" style="ellipse;whiteSpace=wrap;html=1;aspect=fixed;strokeColor=#000000;" vertex="1" parent="VMh6JowCz2_6mpAM9rTz-148">
          <mxGeometry x="47.897499999999994" y="17.105263157894736" width="13.68421052631579" height="13.68421052631579" as="geometry" />
        </mxCell>
        <mxCell id="VMh6JowCz2_6mpAM9rTz-107" value="" style="ellipse;whiteSpace=wrap;html=1;aspect=fixed;strokeColor=#000000;" vertex="1" parent="VMh6JowCz2_6mpAM9rTz-148">
          <mxGeometry x="47.897499999999994" y="34.21052631578947" width="13.68421052631579" height="13.68421052631579" as="geometry" />
        </mxCell>
        <mxCell id="VMh6JowCz2_6mpAM9rTz-108" value="" style="ellipse;whiteSpace=wrap;html=1;aspect=fixed;strokeColor=#000000;" vertex="1" parent="VMh6JowCz2_6mpAM9rTz-148">
          <mxGeometry x="47.897499999999994" y="51.31578947368421" width="13.68421052631579" height="13.68421052631579" as="geometry" />
        </mxCell>
        <mxCell id="VMh6JowCz2_6mpAM9rTz-109" value="" style="endArrow=classic;html=1;rounded=0;exitX=1;exitY=0.5;exitDx=0;exitDy=0;entryX=0;entryY=0.5;entryDx=0;entryDy=0;strokeColor=#000000;" edge="1" parent="VMh6JowCz2_6mpAM9rTz-148" source="VMh6JowCz2_6mpAM9rTz-105" target="VMh6JowCz2_6mpAM9rTz-99">
          <mxGeometry width="50" height="50" relative="1" as="geometry">
            <mxPoint x="112.90125" y="-18.81578947368421" as="sourcePoint" />
            <mxPoint x="130.0075" y="-35.921052631578945" as="targetPoint" />
          </mxGeometry>
        </mxCell>
        <mxCell id="VMh6JowCz2_6mpAM9rTz-110" value="" style="endArrow=classic;html=1;rounded=0;exitX=1;exitY=0.5;exitDx=0;exitDy=0;entryX=0;entryY=0.5;entryDx=0;entryDy=0;strokeColor=#000000;" edge="1" parent="VMh6JowCz2_6mpAM9rTz-148" source="VMh6JowCz2_6mpAM9rTz-106" target="VMh6JowCz2_6mpAM9rTz-99">
          <mxGeometry width="50" height="50" relative="1" as="geometry">
            <mxPoint x="65.00375" y="10.26315789473684" as="sourcePoint" />
            <mxPoint x="68.425" y="18.81578947368421" as="targetPoint" />
          </mxGeometry>
        </mxCell>
        <mxCell id="VMh6JowCz2_6mpAM9rTz-111" value="" style="endArrow=classic;html=1;rounded=0;exitX=1;exitY=0.5;exitDx=0;exitDy=0;entryX=0;entryY=0.5;entryDx=0;entryDy=0;strokeColor=#000000;" edge="1" parent="VMh6JowCz2_6mpAM9rTz-148" source="VMh6JowCz2_6mpAM9rTz-107" target="VMh6JowCz2_6mpAM9rTz-99">
          <mxGeometry width="50" height="50" relative="1" as="geometry">
            <mxPoint x="65.00375" y="27.36842105263158" as="sourcePoint" />
            <mxPoint x="68.425" y="18.81578947368421" as="targetPoint" />
          </mxGeometry>
        </mxCell>
        <mxCell id="VMh6JowCz2_6mpAM9rTz-112" value="" style="endArrow=classic;html=1;rounded=0;exitX=1;exitY=0.5;exitDx=0;exitDy=0;entryX=0;entryY=0.5;entryDx=0;entryDy=0;strokeColor=#000000;" edge="1" parent="VMh6JowCz2_6mpAM9rTz-148" source="VMh6JowCz2_6mpAM9rTz-108" target="VMh6JowCz2_6mpAM9rTz-99">
          <mxGeometry width="50" height="50" relative="1" as="geometry">
            <mxPoint x="65.00375" y="44.47368421052631" as="sourcePoint" />
            <mxPoint x="68.425" y="18.81578947368421" as="targetPoint" />
          </mxGeometry>
        </mxCell>
        <mxCell id="VMh6JowCz2_6mpAM9rTz-113" value="" style="endArrow=classic;html=1;rounded=0;exitX=1;exitY=0.5;exitDx=0;exitDy=0;entryX=0;entryY=0.5;entryDx=0;entryDy=0;strokeColor=#000000;" edge="1" parent="VMh6JowCz2_6mpAM9rTz-148" source="VMh6JowCz2_6mpAM9rTz-105" target="VMh6JowCz2_6mpAM9rTz-100">
          <mxGeometry width="50" height="50" relative="1" as="geometry">
            <mxPoint x="68.425" y="47.89473684210526" as="sourcePoint" />
            <mxPoint x="71.84625" y="22.236842105263154" as="targetPoint" />
          </mxGeometry>
        </mxCell>
        <mxCell id="VMh6JowCz2_6mpAM9rTz-114" value="" style="endArrow=classic;html=1;rounded=0;exitX=1;exitY=0.5;exitDx=0;exitDy=0;entryX=0;entryY=0.5;entryDx=0;entryDy=0;strokeColor=#000000;" edge="1" parent="VMh6JowCz2_6mpAM9rTz-148" source="VMh6JowCz2_6mpAM9rTz-105" target="VMh6JowCz2_6mpAM9rTz-101">
          <mxGeometry width="50" height="50" relative="1" as="geometry">
            <mxPoint x="65.00375" y="10.26315789473684" as="sourcePoint" />
            <mxPoint x="68.425" y="35.921052631578945" as="targetPoint" />
          </mxGeometry>
        </mxCell>
        <mxCell id="VMh6JowCz2_6mpAM9rTz-115" value="" style="endArrow=classic;html=1;rounded=0;exitX=1;exitY=0.5;exitDx=0;exitDy=0;entryX=0;entryY=0.5;entryDx=0;entryDy=0;strokeColor=#000000;" edge="1" parent="VMh6JowCz2_6mpAM9rTz-148" source="VMh6JowCz2_6mpAM9rTz-106" target="VMh6JowCz2_6mpAM9rTz-100">
          <mxGeometry width="50" height="50" relative="1" as="geometry">
            <mxPoint x="65.00375" y="10.26315789473684" as="sourcePoint" />
            <mxPoint x="68.425" y="53.02631578947368" as="targetPoint" />
          </mxGeometry>
        </mxCell>
        <mxCell id="VMh6JowCz2_6mpAM9rTz-116" value="" style="endArrow=classic;html=1;rounded=0;exitX=1;exitY=0.5;exitDx=0;exitDy=0;entryX=0;entryY=0.5;entryDx=0;entryDy=0;strokeColor=#000000;" edge="1" parent="VMh6JowCz2_6mpAM9rTz-148" source="VMh6JowCz2_6mpAM9rTz-106" target="VMh6JowCz2_6mpAM9rTz-101">
          <mxGeometry width="50" height="50" relative="1" as="geometry">
            <mxPoint x="65.00375" y="27.36842105263158" as="sourcePoint" />
            <mxPoint x="68.425" y="35.921052631578945" as="targetPoint" />
          </mxGeometry>
        </mxCell>
        <mxCell id="VMh6JowCz2_6mpAM9rTz-117" value="" style="endArrow=classic;html=1;rounded=0;exitX=1;exitY=0.5;exitDx=0;exitDy=0;entryX=0;entryY=0.5;entryDx=0;entryDy=0;strokeColor=#000000;" edge="1" parent="VMh6JowCz2_6mpAM9rTz-148" source="VMh6JowCz2_6mpAM9rTz-107" target="VMh6JowCz2_6mpAM9rTz-100">
          <mxGeometry width="50" height="50" relative="1" as="geometry">
            <mxPoint x="65.00375" y="27.36842105263158" as="sourcePoint" />
            <mxPoint x="68.425" y="53.02631578947368" as="targetPoint" />
          </mxGeometry>
        </mxCell>
        <mxCell id="VMh6JowCz2_6mpAM9rTz-118" value="" style="endArrow=classic;html=1;rounded=0;exitX=1;exitY=0.5;exitDx=0;exitDy=0;entryX=0;entryY=0.5;entryDx=0;entryDy=0;strokeColor=#000000;" edge="1" parent="VMh6JowCz2_6mpAM9rTz-148" source="VMh6JowCz2_6mpAM9rTz-107" target="VMh6JowCz2_6mpAM9rTz-101">
          <mxGeometry width="50" height="50" relative="1" as="geometry">
            <mxPoint x="65.00375" y="44.47368421052631" as="sourcePoint" />
            <mxPoint x="68.425" y="35.921052631578945" as="targetPoint" />
          </mxGeometry>
        </mxCell>
        <mxCell id="VMh6JowCz2_6mpAM9rTz-119" value="" style="endArrow=classic;html=1;rounded=0;exitX=1;exitY=0.5;exitDx=0;exitDy=0;entryX=0;entryY=0.5;entryDx=0;entryDy=0;strokeColor=#000000;" edge="1" parent="VMh6JowCz2_6mpAM9rTz-148" source="VMh6JowCz2_6mpAM9rTz-108" target="VMh6JowCz2_6mpAM9rTz-101">
          <mxGeometry width="50" height="50" relative="1" as="geometry">
            <mxPoint x="65.00375" y="44.47368421052631" as="sourcePoint" />
            <mxPoint x="68.425" y="53.02631578947368" as="targetPoint" />
          </mxGeometry>
        </mxCell>
        <mxCell id="VMh6JowCz2_6mpAM9rTz-120" value="" style="endArrow=classic;html=1;rounded=0;exitX=1;exitY=0.5;exitDx=0;exitDy=0;entryX=0;entryY=0.5;entryDx=0;entryDy=0;strokeColor=#000000;" edge="1" parent="VMh6JowCz2_6mpAM9rTz-148" source="VMh6JowCz2_6mpAM9rTz-108" target="VMh6JowCz2_6mpAM9rTz-100">
          <mxGeometry width="50" height="50" relative="1" as="geometry">
            <mxPoint x="65.00375" y="61.57894736842105" as="sourcePoint" />
            <mxPoint x="68.425" y="53.02631578947368" as="targetPoint" />
          </mxGeometry>
        </mxCell>
        <mxCell id="VMh6JowCz2_6mpAM9rTz-121" value="" style="ellipse;whiteSpace=wrap;html=1;aspect=fixed;strokeColor=#000000;" vertex="1" parent="VMh6JowCz2_6mpAM9rTz-148">
          <mxGeometry x="23.948749999999997" y="8.552631578947368" width="13.68421052631579" height="13.68421052631579" as="geometry" />
        </mxCell>
        <mxCell id="VMh6JowCz2_6mpAM9rTz-122" value="" style="ellipse;whiteSpace=wrap;html=1;aspect=fixed;strokeColor=#000000;" vertex="1" parent="VMh6JowCz2_6mpAM9rTz-148">
          <mxGeometry x="23.948749999999997" y="25.657894736842106" width="13.68421052631579" height="13.68421052631579" as="geometry" />
        </mxCell>
        <mxCell id="VMh6JowCz2_6mpAM9rTz-123" value="" style="ellipse;whiteSpace=wrap;html=1;aspect=fixed;strokeColor=#000000;" vertex="1" parent="VMh6JowCz2_6mpAM9rTz-148">
          <mxGeometry x="23.948749999999997" y="42.763157894736835" width="13.68421052631579" height="13.68421052631579" as="geometry" />
        </mxCell>
        <mxCell id="VMh6JowCz2_6mpAM9rTz-124" value="" style="endArrow=classic;html=1;rounded=0;exitX=1;exitY=0.5;exitDx=0;exitDy=0;entryX=0;entryY=0.5;entryDx=0;entryDy=0;strokeColor=#000000;" edge="1" parent="VMh6JowCz2_6mpAM9rTz-148" source="VMh6JowCz2_6mpAM9rTz-121" target="VMh6JowCz2_6mpAM9rTz-105">
          <mxGeometry width="50" height="50" relative="1" as="geometry">
            <mxPoint x="61.582499999999996" y="35.921052631578945" as="sourcePoint" />
            <mxPoint x="78.68875" y="18.81578947368421" as="targetPoint" />
          </mxGeometry>
        </mxCell>
        <mxCell id="VMh6JowCz2_6mpAM9rTz-125" value="" style="endArrow=classic;html=1;rounded=0;exitX=1;exitY=0.5;exitDx=0;exitDy=0;entryX=0;entryY=0.5;entryDx=0;entryDy=0;strokeColor=#000000;" edge="1" parent="VMh6JowCz2_6mpAM9rTz-148" source="VMh6JowCz2_6mpAM9rTz-121" target="VMh6JowCz2_6mpAM9rTz-106">
          <mxGeometry width="50" height="50" relative="1" as="geometry">
            <mxPoint x="41.055" y="18.81578947368421" as="sourcePoint" />
            <mxPoint x="51.318749999999994" y="10.26315789473684" as="targetPoint" />
          </mxGeometry>
        </mxCell>
        <mxCell id="VMh6JowCz2_6mpAM9rTz-126" value="" style="endArrow=classic;html=1;rounded=0;exitX=1;exitY=0.5;exitDx=0;exitDy=0;entryX=0;entryY=0.5;entryDx=0;entryDy=0;strokeColor=#000000;" edge="1" parent="VMh6JowCz2_6mpAM9rTz-148" source="VMh6JowCz2_6mpAM9rTz-121" target="VMh6JowCz2_6mpAM9rTz-107">
          <mxGeometry width="50" height="50" relative="1" as="geometry">
            <mxPoint x="41.055" y="18.81578947368421" as="sourcePoint" />
            <mxPoint x="51.318749999999994" y="27.36842105263158" as="targetPoint" />
          </mxGeometry>
        </mxCell>
        <mxCell id="VMh6JowCz2_6mpAM9rTz-127" value="" style="endArrow=classic;html=1;rounded=0;exitX=1;exitY=0.5;exitDx=0;exitDy=0;entryX=0;entryY=0.5;entryDx=0;entryDy=0;strokeColor=#000000;" edge="1" parent="VMh6JowCz2_6mpAM9rTz-148" source="VMh6JowCz2_6mpAM9rTz-121" target="VMh6JowCz2_6mpAM9rTz-108">
          <mxGeometry width="50" height="50" relative="1" as="geometry">
            <mxPoint x="41.055" y="18.81578947368421" as="sourcePoint" />
            <mxPoint x="51.318749999999994" y="44.47368421052631" as="targetPoint" />
          </mxGeometry>
        </mxCell>
        <mxCell id="VMh6JowCz2_6mpAM9rTz-128" value="" style="endArrow=classic;html=1;rounded=0;exitX=1;exitY=0.5;exitDx=0;exitDy=0;entryX=0;entryY=0.5;entryDx=0;entryDy=0;strokeColor=#000000;" edge="1" parent="VMh6JowCz2_6mpAM9rTz-148" source="VMh6JowCz2_6mpAM9rTz-122" target="VMh6JowCz2_6mpAM9rTz-105">
          <mxGeometry width="50" height="50" relative="1" as="geometry">
            <mxPoint x="41.055" y="18.81578947368421" as="sourcePoint" />
            <mxPoint x="51.318749999999994" y="61.57894736842105" as="targetPoint" />
          </mxGeometry>
        </mxCell>
        <mxCell id="VMh6JowCz2_6mpAM9rTz-129" value="" style="endArrow=classic;html=1;rounded=0;exitX=1;exitY=0.5;exitDx=0;exitDy=0;entryX=0;entryY=0.5;entryDx=0;entryDy=0;strokeColor=#000000;" edge="1" parent="VMh6JowCz2_6mpAM9rTz-148" source="VMh6JowCz2_6mpAM9rTz-122" target="VMh6JowCz2_6mpAM9rTz-106">
          <mxGeometry width="50" height="50" relative="1" as="geometry">
            <mxPoint x="41.055" y="35.921052631578945" as="sourcePoint" />
            <mxPoint x="51.318749999999994" y="10.26315789473684" as="targetPoint" />
          </mxGeometry>
        </mxCell>
        <mxCell id="VMh6JowCz2_6mpAM9rTz-130" value="" style="endArrow=classic;html=1;rounded=0;exitX=1;exitY=0.5;exitDx=0;exitDy=0;entryX=0;entryY=0.5;entryDx=0;entryDy=0;strokeColor=#000000;" edge="1" parent="VMh6JowCz2_6mpAM9rTz-148" source="VMh6JowCz2_6mpAM9rTz-122" target="VMh6JowCz2_6mpAM9rTz-107">
          <mxGeometry width="50" height="50" relative="1" as="geometry">
            <mxPoint x="41.055" y="35.921052631578945" as="sourcePoint" />
            <mxPoint x="51.318749999999994" y="27.36842105263158" as="targetPoint" />
          </mxGeometry>
        </mxCell>
        <mxCell id="VMh6JowCz2_6mpAM9rTz-131" value="" style="endArrow=classic;html=1;rounded=0;exitX=1;exitY=0.5;exitDx=0;exitDy=0;entryX=0;entryY=0.5;entryDx=0;entryDy=0;strokeColor=#000000;" edge="1" parent="VMh6JowCz2_6mpAM9rTz-148" source="VMh6JowCz2_6mpAM9rTz-122" target="VMh6JowCz2_6mpAM9rTz-108">
          <mxGeometry width="50" height="50" relative="1" as="geometry">
            <mxPoint x="41.055" y="35.921052631578945" as="sourcePoint" />
            <mxPoint x="51.318749999999994" y="44.47368421052631" as="targetPoint" />
          </mxGeometry>
        </mxCell>
        <mxCell id="VMh6JowCz2_6mpAM9rTz-132" value="" style="endArrow=classic;html=1;rounded=0;exitX=1;exitY=0.5;exitDx=0;exitDy=0;entryX=0;entryY=0.5;entryDx=0;entryDy=0;strokeColor=#000000;" edge="1" parent="VMh6JowCz2_6mpAM9rTz-148" source="VMh6JowCz2_6mpAM9rTz-123" target="VMh6JowCz2_6mpAM9rTz-108">
          <mxGeometry width="50" height="50" relative="1" as="geometry">
            <mxPoint x="41.055" y="35.921052631578945" as="sourcePoint" />
            <mxPoint x="51.318749999999994" y="61.57894736842105" as="targetPoint" />
          </mxGeometry>
        </mxCell>
        <mxCell id="VMh6JowCz2_6mpAM9rTz-133" value="" style="endArrow=classic;html=1;rounded=0;exitX=1;exitY=0.5;exitDx=0;exitDy=0;entryX=0;entryY=0.5;entryDx=0;entryDy=0;strokeColor=#000000;" edge="1" parent="VMh6JowCz2_6mpAM9rTz-148" source="VMh6JowCz2_6mpAM9rTz-123" target="VMh6JowCz2_6mpAM9rTz-107">
          <mxGeometry width="50" height="50" relative="1" as="geometry">
            <mxPoint x="41.055" y="53.02631578947368" as="sourcePoint" />
            <mxPoint x="51.318749999999994" y="61.57894736842105" as="targetPoint" />
          </mxGeometry>
        </mxCell>
        <mxCell id="VMh6JowCz2_6mpAM9rTz-134" value="" style="endArrow=classic;html=1;rounded=0;exitX=1;exitY=0.5;exitDx=0;exitDy=0;entryX=0;entryY=0.5;entryDx=0;entryDy=0;strokeColor=#000000;" edge="1" parent="VMh6JowCz2_6mpAM9rTz-148" source="VMh6JowCz2_6mpAM9rTz-123" target="VMh6JowCz2_6mpAM9rTz-106">
          <mxGeometry width="50" height="50" relative="1" as="geometry">
            <mxPoint x="41.055" y="53.02631578947368" as="sourcePoint" />
            <mxPoint x="51.318749999999994" y="44.47368421052631" as="targetPoint" />
          </mxGeometry>
        </mxCell>
        <mxCell id="VMh6JowCz2_6mpAM9rTz-135" value="" style="endArrow=classic;html=1;rounded=0;exitX=1;exitY=0.5;exitDx=0;exitDy=0;entryX=0;entryY=0.5;entryDx=0;entryDy=0;strokeColor=#000000;" edge="1" parent="VMh6JowCz2_6mpAM9rTz-148" source="VMh6JowCz2_6mpAM9rTz-123" target="VMh6JowCz2_6mpAM9rTz-105">
          <mxGeometry width="50" height="50" relative="1" as="geometry">
            <mxPoint x="41.055" y="53.02631578947368" as="sourcePoint" />
            <mxPoint x="51.318749999999994" y="27.36842105263158" as="targetPoint" />
          </mxGeometry>
        </mxCell>
        <mxCell id="VMh6JowCz2_6mpAM9rTz-136" value="" style="ellipse;whiteSpace=wrap;html=1;aspect=fixed;strokeColor=#000000;" vertex="1" parent="VMh6JowCz2_6mpAM9rTz-148">
          <mxGeometry y="8.552631578947368" width="13.68421052631579" height="13.68421052631579" as="geometry" />
        </mxCell>
        <mxCell id="VMh6JowCz2_6mpAM9rTz-137" value="" style="ellipse;whiteSpace=wrap;html=1;aspect=fixed;strokeColor=#000000;" vertex="1" parent="VMh6JowCz2_6mpAM9rTz-148">
          <mxGeometry y="25.657894736842106" width="13.68421052631579" height="13.68421052631579" as="geometry" />
        </mxCell>
        <mxCell id="VMh6JowCz2_6mpAM9rTz-138" value="" style="ellipse;whiteSpace=wrap;html=1;aspect=fixed;strokeColor=#000000;" vertex="1" parent="VMh6JowCz2_6mpAM9rTz-148">
          <mxGeometry y="42.763157894736835" width="13.68421052631579" height="13.68421052631579" as="geometry" />
        </mxCell>
        <mxCell id="VMh6JowCz2_6mpAM9rTz-139" value="" style="endArrow=classic;html=1;rounded=0;exitX=1;exitY=0.5;exitDx=0;exitDy=0;entryX=0;entryY=0.5;entryDx=0;entryDy=0;strokeColor=#000000;" edge="1" parent="VMh6JowCz2_6mpAM9rTz-148" source="VMh6JowCz2_6mpAM9rTz-136" target="VMh6JowCz2_6mpAM9rTz-121">
          <mxGeometry width="50" height="50" relative="1" as="geometry">
            <mxPoint x="34.2125" y="35.921052631578945" as="sourcePoint" />
            <mxPoint x="51.318749999999994" y="18.81578947368421" as="targetPoint" />
          </mxGeometry>
        </mxCell>
        <mxCell id="VMh6JowCz2_6mpAM9rTz-140" value="" style="endArrow=classic;html=1;rounded=0;exitX=1;exitY=0.5;exitDx=0;exitDy=0;entryX=0;entryY=0.5;entryDx=0;entryDy=0;strokeColor=#000000;" edge="1" parent="VMh6JowCz2_6mpAM9rTz-148" source="VMh6JowCz2_6mpAM9rTz-136" target="VMh6JowCz2_6mpAM9rTz-122">
          <mxGeometry width="50" height="50" relative="1" as="geometry">
            <mxPoint x="17.10625" y="18.81578947368421" as="sourcePoint" />
            <mxPoint x="27.37" y="18.81578947368421" as="targetPoint" />
          </mxGeometry>
        </mxCell>
        <mxCell id="VMh6JowCz2_6mpAM9rTz-141" value="" style="endArrow=classic;html=1;rounded=0;exitX=1;exitY=0.5;exitDx=0;exitDy=0;entryX=0;entryY=0.5;entryDx=0;entryDy=0;strokeColor=#000000;" edge="1" parent="VMh6JowCz2_6mpAM9rTz-148" source="VMh6JowCz2_6mpAM9rTz-136" target="VMh6JowCz2_6mpAM9rTz-123">
          <mxGeometry width="50" height="50" relative="1" as="geometry">
            <mxPoint x="17.10625" y="18.81578947368421" as="sourcePoint" />
            <mxPoint x="27.37" y="35.921052631578945" as="targetPoint" />
          </mxGeometry>
        </mxCell>
        <mxCell id="VMh6JowCz2_6mpAM9rTz-142" value="" style="endArrow=classic;html=1;rounded=0;exitX=1;exitY=0.5;exitDx=0;exitDy=0;entryX=0;entryY=0.5;entryDx=0;entryDy=0;strokeColor=#000000;" edge="1" parent="VMh6JowCz2_6mpAM9rTz-148" source="VMh6JowCz2_6mpAM9rTz-137" target="VMh6JowCz2_6mpAM9rTz-122">
          <mxGeometry width="50" height="50" relative="1" as="geometry">
            <mxPoint x="17.10625" y="18.81578947368421" as="sourcePoint" />
            <mxPoint x="27.37" y="53.02631578947368" as="targetPoint" />
          </mxGeometry>
        </mxCell>
        <mxCell id="VMh6JowCz2_6mpAM9rTz-143" value="" style="endArrow=classic;html=1;rounded=0;exitX=1;exitY=0.5;exitDx=0;exitDy=0;entryX=0;entryY=0.5;entryDx=0;entryDy=0;strokeColor=#000000;" edge="1" parent="VMh6JowCz2_6mpAM9rTz-148" source="VMh6JowCz2_6mpAM9rTz-137" target="VMh6JowCz2_6mpAM9rTz-121">
          <mxGeometry width="50" height="50" relative="1" as="geometry">
            <mxPoint x="17.10625" y="35.921052631578945" as="sourcePoint" />
            <mxPoint x="27.37" y="35.921052631578945" as="targetPoint" />
          </mxGeometry>
        </mxCell>
        <mxCell id="VMh6JowCz2_6mpAM9rTz-144" value="" style="endArrow=classic;html=1;rounded=0;exitX=1;exitY=0.5;exitDx=0;exitDy=0;entryX=0;entryY=0.5;entryDx=0;entryDy=0;strokeColor=#000000;" edge="1" parent="VMh6JowCz2_6mpAM9rTz-148" source="VMh6JowCz2_6mpAM9rTz-137" target="VMh6JowCz2_6mpAM9rTz-123">
          <mxGeometry width="50" height="50" relative="1" as="geometry">
            <mxPoint x="17.10625" y="35.921052631578945" as="sourcePoint" />
            <mxPoint x="27.37" y="18.81578947368421" as="targetPoint" />
          </mxGeometry>
        </mxCell>
        <mxCell id="VMh6JowCz2_6mpAM9rTz-145" value="" style="endArrow=classic;html=1;rounded=0;exitX=1;exitY=0.5;exitDx=0;exitDy=0;entryX=0;entryY=0.5;entryDx=0;entryDy=0;strokeColor=#000000;" edge="1" parent="VMh6JowCz2_6mpAM9rTz-148" source="VMh6JowCz2_6mpAM9rTz-138" target="VMh6JowCz2_6mpAM9rTz-123">
          <mxGeometry width="50" height="50" relative="1" as="geometry">
            <mxPoint x="17.10625" y="35.921052631578945" as="sourcePoint" />
            <mxPoint x="27.37" y="53.02631578947368" as="targetPoint" />
          </mxGeometry>
        </mxCell>
        <mxCell id="VMh6JowCz2_6mpAM9rTz-146" value="" style="endArrow=classic;html=1;rounded=0;exitX=1;exitY=0.5;exitDx=0;exitDy=0;entryX=0;entryY=0.5;entryDx=0;entryDy=0;strokeColor=#000000;" edge="1" parent="VMh6JowCz2_6mpAM9rTz-148" source="VMh6JowCz2_6mpAM9rTz-138" target="VMh6JowCz2_6mpAM9rTz-122">
          <mxGeometry width="50" height="50" relative="1" as="geometry">
            <mxPoint x="17.10625" y="53.02631578947368" as="sourcePoint" />
            <mxPoint x="27.37" y="53.02631578947368" as="targetPoint" />
          </mxGeometry>
        </mxCell>
        <mxCell id="VMh6JowCz2_6mpAM9rTz-147" value="" style="endArrow=classic;html=1;rounded=0;exitX=1;exitY=0.5;exitDx=0;exitDy=0;entryX=0;entryY=0.5;entryDx=0;entryDy=0;strokeColor=#000000;" edge="1" parent="VMh6JowCz2_6mpAM9rTz-148" source="VMh6JowCz2_6mpAM9rTz-138" target="VMh6JowCz2_6mpAM9rTz-121">
          <mxGeometry width="50" height="50" relative="1" as="geometry">
            <mxPoint x="17.10625" y="53.02631578947368" as="sourcePoint" />
            <mxPoint x="27.37" y="35.921052631578945" as="targetPoint" />
          </mxGeometry>
        </mxCell>
        <mxCell id="VMh6JowCz2_6mpAM9rTz-149" value="" style="group;strokeColor=none;" vertex="1" connectable="0" parent="1">
          <mxGeometry x="619.5" y="606.5" width="109.48" height="65" as="geometry" />
        </mxCell>
        <mxCell id="VMh6JowCz2_6mpAM9rTz-150" value="" style="ellipse;whiteSpace=wrap;html=1;aspect=fixed;strokeColor=#000000;" vertex="1" parent="VMh6JowCz2_6mpAM9rTz-149">
          <mxGeometry x="95.79499999999999" y="25.657894736842106" width="13.68421052631579" height="13.68421052631579" as="geometry" />
        </mxCell>
        <mxCell id="VMh6JowCz2_6mpAM9rTz-151" value="" style="ellipse;whiteSpace=wrap;html=1;aspect=fixed;strokeColor=#000000;" vertex="1" parent="VMh6JowCz2_6mpAM9rTz-149">
          <mxGeometry x="71.84625" y="8.552631578947368" width="13.68421052631579" height="13.68421052631579" as="geometry" />
        </mxCell>
        <mxCell id="VMh6JowCz2_6mpAM9rTz-152" value="" style="ellipse;whiteSpace=wrap;html=1;aspect=fixed;strokeColor=#000000;" vertex="1" parent="VMh6JowCz2_6mpAM9rTz-149">
          <mxGeometry x="71.84625" y="25.657894736842106" width="13.68421052631579" height="13.68421052631579" as="geometry" />
        </mxCell>
        <mxCell id="VMh6JowCz2_6mpAM9rTz-153" value="" style="ellipse;whiteSpace=wrap;html=1;aspect=fixed;strokeColor=#000000;" vertex="1" parent="VMh6JowCz2_6mpAM9rTz-149">
          <mxGeometry x="71.84625" y="42.763157894736835" width="13.68421052631579" height="13.68421052631579" as="geometry" />
        </mxCell>
        <mxCell id="VMh6JowCz2_6mpAM9rTz-154" value="" style="endArrow=classic;html=1;rounded=0;exitX=1;exitY=0.5;exitDx=0;exitDy=0;entryX=0;entryY=0.5;entryDx=0;entryDy=0;strokeColor=#000000;" edge="1" parent="VMh6JowCz2_6mpAM9rTz-149" source="VMh6JowCz2_6mpAM9rTz-151" target="VMh6JowCz2_6mpAM9rTz-150">
          <mxGeometry width="50" height="50" relative="1" as="geometry">
            <mxPoint x="112.90125" y="-18.81578947368421" as="sourcePoint" />
            <mxPoint x="130.0075" y="-35.921052631578945" as="targetPoint" />
          </mxGeometry>
        </mxCell>
        <mxCell id="VMh6JowCz2_6mpAM9rTz-155" value="" style="endArrow=classic;html=1;rounded=0;exitX=1;exitY=0.5;exitDx=0;exitDy=0;entryX=0;entryY=0.5;entryDx=0;entryDy=0;strokeColor=#000000;" edge="1" parent="VMh6JowCz2_6mpAM9rTz-149" source="VMh6JowCz2_6mpAM9rTz-152" target="VMh6JowCz2_6mpAM9rTz-150">
          <mxGeometry width="50" height="50" relative="1" as="geometry">
            <mxPoint x="82.11" y="18.81578947368421" as="sourcePoint" />
            <mxPoint x="88.9525" y="35.921052631578945" as="targetPoint" />
          </mxGeometry>
        </mxCell>
        <mxCell id="VMh6JowCz2_6mpAM9rTz-156" value="" style="endArrow=classic;html=1;rounded=0;exitX=1;exitY=0.5;exitDx=0;exitDy=0;entryX=0;entryY=0.5;entryDx=0;entryDy=0;strokeColor=#000000;" edge="1" parent="VMh6JowCz2_6mpAM9rTz-149" source="VMh6JowCz2_6mpAM9rTz-153" target="VMh6JowCz2_6mpAM9rTz-150">
          <mxGeometry width="50" height="50" relative="1" as="geometry">
            <mxPoint x="82.11" y="18.81578947368421" as="sourcePoint" />
            <mxPoint x="88.9525" y="35.921052631578945" as="targetPoint" />
          </mxGeometry>
        </mxCell>
        <mxCell id="VMh6JowCz2_6mpAM9rTz-157" value="" style="ellipse;whiteSpace=wrap;html=1;aspect=fixed;strokeColor=#000000;" vertex="1" parent="VMh6JowCz2_6mpAM9rTz-149">
          <mxGeometry x="47.897499999999994" width="13.68421052631579" height="13.68421052631579" as="geometry" />
        </mxCell>
        <mxCell id="VMh6JowCz2_6mpAM9rTz-158" value="" style="ellipse;whiteSpace=wrap;html=1;aspect=fixed;strokeColor=#000000;" vertex="1" parent="VMh6JowCz2_6mpAM9rTz-149">
          <mxGeometry x="47.897499999999994" y="17.105263157894736" width="13.68421052631579" height="13.68421052631579" as="geometry" />
        </mxCell>
        <mxCell id="VMh6JowCz2_6mpAM9rTz-159" value="" style="ellipse;whiteSpace=wrap;html=1;aspect=fixed;strokeColor=#000000;" vertex="1" parent="VMh6JowCz2_6mpAM9rTz-149">
          <mxGeometry x="47.897499999999994" y="34.21052631578947" width="13.68421052631579" height="13.68421052631579" as="geometry" />
        </mxCell>
        <mxCell id="VMh6JowCz2_6mpAM9rTz-160" value="" style="ellipse;whiteSpace=wrap;html=1;aspect=fixed;strokeColor=#000000;" vertex="1" parent="VMh6JowCz2_6mpAM9rTz-149">
          <mxGeometry x="47.897499999999994" y="51.31578947368421" width="13.68421052631579" height="13.68421052631579" as="geometry" />
        </mxCell>
        <mxCell id="VMh6JowCz2_6mpAM9rTz-161" value="" style="endArrow=classic;html=1;rounded=0;exitX=1;exitY=0.5;exitDx=0;exitDy=0;entryX=0;entryY=0.5;entryDx=0;entryDy=0;strokeColor=#000000;" edge="1" parent="VMh6JowCz2_6mpAM9rTz-149" source="VMh6JowCz2_6mpAM9rTz-157" target="VMh6JowCz2_6mpAM9rTz-151">
          <mxGeometry width="50" height="50" relative="1" as="geometry">
            <mxPoint x="112.90125" y="-18.81578947368421" as="sourcePoint" />
            <mxPoint x="130.0075" y="-35.921052631578945" as="targetPoint" />
          </mxGeometry>
        </mxCell>
        <mxCell id="VMh6JowCz2_6mpAM9rTz-162" value="" style="endArrow=classic;html=1;rounded=0;exitX=1;exitY=0.5;exitDx=0;exitDy=0;entryX=0;entryY=0.5;entryDx=0;entryDy=0;strokeColor=#000000;" edge="1" parent="VMh6JowCz2_6mpAM9rTz-149" source="VMh6JowCz2_6mpAM9rTz-158" target="VMh6JowCz2_6mpAM9rTz-151">
          <mxGeometry width="50" height="50" relative="1" as="geometry">
            <mxPoint x="65.00375" y="10.26315789473684" as="sourcePoint" />
            <mxPoint x="68.425" y="18.81578947368421" as="targetPoint" />
          </mxGeometry>
        </mxCell>
        <mxCell id="VMh6JowCz2_6mpAM9rTz-163" value="" style="endArrow=classic;html=1;rounded=0;exitX=1;exitY=0.5;exitDx=0;exitDy=0;entryX=0;entryY=0.5;entryDx=0;entryDy=0;strokeColor=#000000;" edge="1" parent="VMh6JowCz2_6mpAM9rTz-149" source="VMh6JowCz2_6mpAM9rTz-159" target="VMh6JowCz2_6mpAM9rTz-151">
          <mxGeometry width="50" height="50" relative="1" as="geometry">
            <mxPoint x="65.00375" y="27.36842105263158" as="sourcePoint" />
            <mxPoint x="68.425" y="18.81578947368421" as="targetPoint" />
          </mxGeometry>
        </mxCell>
        <mxCell id="VMh6JowCz2_6mpAM9rTz-164" value="" style="endArrow=classic;html=1;rounded=0;exitX=1;exitY=0.5;exitDx=0;exitDy=0;entryX=0;entryY=0.5;entryDx=0;entryDy=0;strokeColor=#000000;" edge="1" parent="VMh6JowCz2_6mpAM9rTz-149" source="VMh6JowCz2_6mpAM9rTz-160" target="VMh6JowCz2_6mpAM9rTz-151">
          <mxGeometry width="50" height="50" relative="1" as="geometry">
            <mxPoint x="65.00375" y="44.47368421052631" as="sourcePoint" />
            <mxPoint x="68.425" y="18.81578947368421" as="targetPoint" />
          </mxGeometry>
        </mxCell>
        <mxCell id="VMh6JowCz2_6mpAM9rTz-165" value="" style="endArrow=classic;html=1;rounded=0;exitX=1;exitY=0.5;exitDx=0;exitDy=0;entryX=0;entryY=0.5;entryDx=0;entryDy=0;strokeColor=#000000;" edge="1" parent="VMh6JowCz2_6mpAM9rTz-149" source="VMh6JowCz2_6mpAM9rTz-157" target="VMh6JowCz2_6mpAM9rTz-152">
          <mxGeometry width="50" height="50" relative="1" as="geometry">
            <mxPoint x="68.425" y="47.89473684210526" as="sourcePoint" />
            <mxPoint x="71.84625" y="22.236842105263154" as="targetPoint" />
          </mxGeometry>
        </mxCell>
        <mxCell id="VMh6JowCz2_6mpAM9rTz-166" value="" style="endArrow=classic;html=1;rounded=0;exitX=1;exitY=0.5;exitDx=0;exitDy=0;entryX=0;entryY=0.5;entryDx=0;entryDy=0;strokeColor=#000000;" edge="1" parent="VMh6JowCz2_6mpAM9rTz-149" source="VMh6JowCz2_6mpAM9rTz-157" target="VMh6JowCz2_6mpAM9rTz-153">
          <mxGeometry width="50" height="50" relative="1" as="geometry">
            <mxPoint x="65.00375" y="10.26315789473684" as="sourcePoint" />
            <mxPoint x="68.425" y="35.921052631578945" as="targetPoint" />
          </mxGeometry>
        </mxCell>
        <mxCell id="VMh6JowCz2_6mpAM9rTz-167" value="" style="endArrow=classic;html=1;rounded=0;exitX=1;exitY=0.5;exitDx=0;exitDy=0;entryX=0;entryY=0.5;entryDx=0;entryDy=0;strokeColor=#000000;" edge="1" parent="VMh6JowCz2_6mpAM9rTz-149" source="VMh6JowCz2_6mpAM9rTz-158" target="VMh6JowCz2_6mpAM9rTz-152">
          <mxGeometry width="50" height="50" relative="1" as="geometry">
            <mxPoint x="65.00375" y="10.26315789473684" as="sourcePoint" />
            <mxPoint x="68.425" y="53.02631578947368" as="targetPoint" />
          </mxGeometry>
        </mxCell>
        <mxCell id="VMh6JowCz2_6mpAM9rTz-168" value="" style="endArrow=classic;html=1;rounded=0;exitX=1;exitY=0.5;exitDx=0;exitDy=0;entryX=0;entryY=0.5;entryDx=0;entryDy=0;strokeColor=#000000;" edge="1" parent="VMh6JowCz2_6mpAM9rTz-149" source="VMh6JowCz2_6mpAM9rTz-158" target="VMh6JowCz2_6mpAM9rTz-153">
          <mxGeometry width="50" height="50" relative="1" as="geometry">
            <mxPoint x="65.00375" y="27.36842105263158" as="sourcePoint" />
            <mxPoint x="68.425" y="35.921052631578945" as="targetPoint" />
          </mxGeometry>
        </mxCell>
        <mxCell id="VMh6JowCz2_6mpAM9rTz-169" value="" style="endArrow=classic;html=1;rounded=0;exitX=1;exitY=0.5;exitDx=0;exitDy=0;entryX=0;entryY=0.5;entryDx=0;entryDy=0;strokeColor=#000000;" edge="1" parent="VMh6JowCz2_6mpAM9rTz-149" source="VMh6JowCz2_6mpAM9rTz-159" target="VMh6JowCz2_6mpAM9rTz-152">
          <mxGeometry width="50" height="50" relative="1" as="geometry">
            <mxPoint x="65.00375" y="27.36842105263158" as="sourcePoint" />
            <mxPoint x="68.425" y="53.02631578947368" as="targetPoint" />
          </mxGeometry>
        </mxCell>
        <mxCell id="VMh6JowCz2_6mpAM9rTz-170" value="" style="endArrow=classic;html=1;rounded=0;exitX=1;exitY=0.5;exitDx=0;exitDy=0;entryX=0;entryY=0.5;entryDx=0;entryDy=0;strokeColor=#000000;" edge="1" parent="VMh6JowCz2_6mpAM9rTz-149" source="VMh6JowCz2_6mpAM9rTz-159" target="VMh6JowCz2_6mpAM9rTz-153">
          <mxGeometry width="50" height="50" relative="1" as="geometry">
            <mxPoint x="65.00375" y="44.47368421052631" as="sourcePoint" />
            <mxPoint x="68.425" y="35.921052631578945" as="targetPoint" />
          </mxGeometry>
        </mxCell>
        <mxCell id="VMh6JowCz2_6mpAM9rTz-171" value="" style="endArrow=classic;html=1;rounded=0;exitX=1;exitY=0.5;exitDx=0;exitDy=0;entryX=0;entryY=0.5;entryDx=0;entryDy=0;strokeColor=#000000;" edge="1" parent="VMh6JowCz2_6mpAM9rTz-149" source="VMh6JowCz2_6mpAM9rTz-160" target="VMh6JowCz2_6mpAM9rTz-153">
          <mxGeometry width="50" height="50" relative="1" as="geometry">
            <mxPoint x="65.00375" y="44.47368421052631" as="sourcePoint" />
            <mxPoint x="68.425" y="53.02631578947368" as="targetPoint" />
          </mxGeometry>
        </mxCell>
        <mxCell id="VMh6JowCz2_6mpAM9rTz-172" value="" style="endArrow=classic;html=1;rounded=0;exitX=1;exitY=0.5;exitDx=0;exitDy=0;entryX=0;entryY=0.5;entryDx=0;entryDy=0;strokeColor=#000000;" edge="1" parent="VMh6JowCz2_6mpAM9rTz-149" source="VMh6JowCz2_6mpAM9rTz-160" target="VMh6JowCz2_6mpAM9rTz-152">
          <mxGeometry width="50" height="50" relative="1" as="geometry">
            <mxPoint x="65.00375" y="61.57894736842105" as="sourcePoint" />
            <mxPoint x="68.425" y="53.02631578947368" as="targetPoint" />
          </mxGeometry>
        </mxCell>
        <mxCell id="VMh6JowCz2_6mpAM9rTz-173" value="" style="ellipse;whiteSpace=wrap;html=1;aspect=fixed;strokeColor=#000000;" vertex="1" parent="VMh6JowCz2_6mpAM9rTz-149">
          <mxGeometry x="23.948749999999997" y="8.552631578947368" width="13.68421052631579" height="13.68421052631579" as="geometry" />
        </mxCell>
        <mxCell id="VMh6JowCz2_6mpAM9rTz-174" value="" style="ellipse;whiteSpace=wrap;html=1;aspect=fixed;strokeColor=#000000;" vertex="1" parent="VMh6JowCz2_6mpAM9rTz-149">
          <mxGeometry x="23.948749999999997" y="25.657894736842106" width="13.68421052631579" height="13.68421052631579" as="geometry" />
        </mxCell>
        <mxCell id="VMh6JowCz2_6mpAM9rTz-175" value="" style="ellipse;whiteSpace=wrap;html=1;aspect=fixed;strokeColor=#000000;" vertex="1" parent="VMh6JowCz2_6mpAM9rTz-149">
          <mxGeometry x="23.948749999999997" y="42.763157894736835" width="13.68421052631579" height="13.68421052631579" as="geometry" />
        </mxCell>
        <mxCell id="VMh6JowCz2_6mpAM9rTz-176" value="" style="endArrow=classic;html=1;rounded=0;exitX=1;exitY=0.5;exitDx=0;exitDy=0;entryX=0;entryY=0.5;entryDx=0;entryDy=0;strokeColor=#000000;" edge="1" parent="VMh6JowCz2_6mpAM9rTz-149" source="VMh6JowCz2_6mpAM9rTz-173" target="VMh6JowCz2_6mpAM9rTz-157">
          <mxGeometry width="50" height="50" relative="1" as="geometry">
            <mxPoint x="61.582499999999996" y="35.921052631578945" as="sourcePoint" />
            <mxPoint x="78.68875" y="18.81578947368421" as="targetPoint" />
          </mxGeometry>
        </mxCell>
        <mxCell id="VMh6JowCz2_6mpAM9rTz-177" value="" style="endArrow=classic;html=1;rounded=0;exitX=1;exitY=0.5;exitDx=0;exitDy=0;entryX=0;entryY=0.5;entryDx=0;entryDy=0;strokeColor=#000000;" edge="1" parent="VMh6JowCz2_6mpAM9rTz-149" source="VMh6JowCz2_6mpAM9rTz-173" target="VMh6JowCz2_6mpAM9rTz-158">
          <mxGeometry width="50" height="50" relative="1" as="geometry">
            <mxPoint x="41.055" y="18.81578947368421" as="sourcePoint" />
            <mxPoint x="51.318749999999994" y="10.26315789473684" as="targetPoint" />
          </mxGeometry>
        </mxCell>
        <mxCell id="VMh6JowCz2_6mpAM9rTz-178" value="" style="endArrow=classic;html=1;rounded=0;exitX=1;exitY=0.5;exitDx=0;exitDy=0;entryX=0;entryY=0.5;entryDx=0;entryDy=0;strokeColor=#000000;" edge="1" parent="VMh6JowCz2_6mpAM9rTz-149" source="VMh6JowCz2_6mpAM9rTz-173" target="VMh6JowCz2_6mpAM9rTz-159">
          <mxGeometry width="50" height="50" relative="1" as="geometry">
            <mxPoint x="41.055" y="18.81578947368421" as="sourcePoint" />
            <mxPoint x="51.318749999999994" y="27.36842105263158" as="targetPoint" />
          </mxGeometry>
        </mxCell>
        <mxCell id="VMh6JowCz2_6mpAM9rTz-179" value="" style="endArrow=classic;html=1;rounded=0;exitX=1;exitY=0.5;exitDx=0;exitDy=0;entryX=0;entryY=0.5;entryDx=0;entryDy=0;strokeColor=#000000;" edge="1" parent="VMh6JowCz2_6mpAM9rTz-149" source="VMh6JowCz2_6mpAM9rTz-173" target="VMh6JowCz2_6mpAM9rTz-160">
          <mxGeometry width="50" height="50" relative="1" as="geometry">
            <mxPoint x="41.055" y="18.81578947368421" as="sourcePoint" />
            <mxPoint x="51.318749999999994" y="44.47368421052631" as="targetPoint" />
          </mxGeometry>
        </mxCell>
        <mxCell id="VMh6JowCz2_6mpAM9rTz-180" value="" style="endArrow=classic;html=1;rounded=0;exitX=1;exitY=0.5;exitDx=0;exitDy=0;entryX=0;entryY=0.5;entryDx=0;entryDy=0;strokeColor=#000000;" edge="1" parent="VMh6JowCz2_6mpAM9rTz-149" source="VMh6JowCz2_6mpAM9rTz-174" target="VMh6JowCz2_6mpAM9rTz-157">
          <mxGeometry width="50" height="50" relative="1" as="geometry">
            <mxPoint x="41.055" y="18.81578947368421" as="sourcePoint" />
            <mxPoint x="51.318749999999994" y="61.57894736842105" as="targetPoint" />
          </mxGeometry>
        </mxCell>
        <mxCell id="VMh6JowCz2_6mpAM9rTz-181" value="" style="endArrow=classic;html=1;rounded=0;exitX=1;exitY=0.5;exitDx=0;exitDy=0;entryX=0;entryY=0.5;entryDx=0;entryDy=0;strokeColor=#000000;" edge="1" parent="VMh6JowCz2_6mpAM9rTz-149" source="VMh6JowCz2_6mpAM9rTz-174" target="VMh6JowCz2_6mpAM9rTz-158">
          <mxGeometry width="50" height="50" relative="1" as="geometry">
            <mxPoint x="41.055" y="35.921052631578945" as="sourcePoint" />
            <mxPoint x="51.318749999999994" y="10.26315789473684" as="targetPoint" />
          </mxGeometry>
        </mxCell>
        <mxCell id="VMh6JowCz2_6mpAM9rTz-182" value="" style="endArrow=classic;html=1;rounded=0;exitX=1;exitY=0.5;exitDx=0;exitDy=0;entryX=0;entryY=0.5;entryDx=0;entryDy=0;strokeColor=#000000;" edge="1" parent="VMh6JowCz2_6mpAM9rTz-149" source="VMh6JowCz2_6mpAM9rTz-174" target="VMh6JowCz2_6mpAM9rTz-159">
          <mxGeometry width="50" height="50" relative="1" as="geometry">
            <mxPoint x="41.055" y="35.921052631578945" as="sourcePoint" />
            <mxPoint x="51.318749999999994" y="27.36842105263158" as="targetPoint" />
          </mxGeometry>
        </mxCell>
        <mxCell id="VMh6JowCz2_6mpAM9rTz-183" value="" style="endArrow=classic;html=1;rounded=0;exitX=1;exitY=0.5;exitDx=0;exitDy=0;entryX=0;entryY=0.5;entryDx=0;entryDy=0;strokeColor=#000000;" edge="1" parent="VMh6JowCz2_6mpAM9rTz-149" source="VMh6JowCz2_6mpAM9rTz-174" target="VMh6JowCz2_6mpAM9rTz-160">
          <mxGeometry width="50" height="50" relative="1" as="geometry">
            <mxPoint x="41.055" y="35.921052631578945" as="sourcePoint" />
            <mxPoint x="51.318749999999994" y="44.47368421052631" as="targetPoint" />
          </mxGeometry>
        </mxCell>
        <mxCell id="VMh6JowCz2_6mpAM9rTz-184" value="" style="endArrow=classic;html=1;rounded=0;exitX=1;exitY=0.5;exitDx=0;exitDy=0;entryX=0;entryY=0.5;entryDx=0;entryDy=0;strokeColor=#000000;" edge="1" parent="VMh6JowCz2_6mpAM9rTz-149" source="VMh6JowCz2_6mpAM9rTz-175" target="VMh6JowCz2_6mpAM9rTz-160">
          <mxGeometry width="50" height="50" relative="1" as="geometry">
            <mxPoint x="41.055" y="35.921052631578945" as="sourcePoint" />
            <mxPoint x="51.318749999999994" y="61.57894736842105" as="targetPoint" />
          </mxGeometry>
        </mxCell>
        <mxCell id="VMh6JowCz2_6mpAM9rTz-185" value="" style="endArrow=classic;html=1;rounded=0;exitX=1;exitY=0.5;exitDx=0;exitDy=0;entryX=0;entryY=0.5;entryDx=0;entryDy=0;strokeColor=#000000;" edge="1" parent="VMh6JowCz2_6mpAM9rTz-149" source="VMh6JowCz2_6mpAM9rTz-175" target="VMh6JowCz2_6mpAM9rTz-159">
          <mxGeometry width="50" height="50" relative="1" as="geometry">
            <mxPoint x="41.055" y="53.02631578947368" as="sourcePoint" />
            <mxPoint x="51.318749999999994" y="61.57894736842105" as="targetPoint" />
          </mxGeometry>
        </mxCell>
        <mxCell id="VMh6JowCz2_6mpAM9rTz-186" value="" style="endArrow=classic;html=1;rounded=0;exitX=1;exitY=0.5;exitDx=0;exitDy=0;entryX=0;entryY=0.5;entryDx=0;entryDy=0;strokeColor=#000000;" edge="1" parent="VMh6JowCz2_6mpAM9rTz-149" source="VMh6JowCz2_6mpAM9rTz-175" target="VMh6JowCz2_6mpAM9rTz-158">
          <mxGeometry width="50" height="50" relative="1" as="geometry">
            <mxPoint x="41.055" y="53.02631578947368" as="sourcePoint" />
            <mxPoint x="51.318749999999994" y="44.47368421052631" as="targetPoint" />
          </mxGeometry>
        </mxCell>
        <mxCell id="VMh6JowCz2_6mpAM9rTz-187" value="" style="endArrow=classic;html=1;rounded=0;exitX=1;exitY=0.5;exitDx=0;exitDy=0;entryX=0;entryY=0.5;entryDx=0;entryDy=0;strokeColor=#000000;" edge="1" parent="VMh6JowCz2_6mpAM9rTz-149" source="VMh6JowCz2_6mpAM9rTz-175" target="VMh6JowCz2_6mpAM9rTz-157">
          <mxGeometry width="50" height="50" relative="1" as="geometry">
            <mxPoint x="41.055" y="53.02631578947368" as="sourcePoint" />
            <mxPoint x="51.318749999999994" y="27.36842105263158" as="targetPoint" />
          </mxGeometry>
        </mxCell>
        <mxCell id="VMh6JowCz2_6mpAM9rTz-188" value="" style="ellipse;whiteSpace=wrap;html=1;aspect=fixed;strokeColor=#000000;" vertex="1" parent="VMh6JowCz2_6mpAM9rTz-149">
          <mxGeometry y="8.552631578947368" width="13.68421052631579" height="13.68421052631579" as="geometry" />
        </mxCell>
        <mxCell id="VMh6JowCz2_6mpAM9rTz-189" value="" style="ellipse;whiteSpace=wrap;html=1;aspect=fixed;strokeColor=#000000;" vertex="1" parent="VMh6JowCz2_6mpAM9rTz-149">
          <mxGeometry y="25.657894736842106" width="13.68421052631579" height="13.68421052631579" as="geometry" />
        </mxCell>
        <mxCell id="VMh6JowCz2_6mpAM9rTz-190" value="" style="ellipse;whiteSpace=wrap;html=1;aspect=fixed;strokeColor=#000000;" vertex="1" parent="VMh6JowCz2_6mpAM9rTz-149">
          <mxGeometry y="42.763157894736835" width="13.68421052631579" height="13.68421052631579" as="geometry" />
        </mxCell>
        <mxCell id="VMh6JowCz2_6mpAM9rTz-191" value="" style="endArrow=classic;html=1;rounded=0;exitX=1;exitY=0.5;exitDx=0;exitDy=0;entryX=0;entryY=0.5;entryDx=0;entryDy=0;strokeColor=#000000;" edge="1" parent="VMh6JowCz2_6mpAM9rTz-149" source="VMh6JowCz2_6mpAM9rTz-188" target="VMh6JowCz2_6mpAM9rTz-173">
          <mxGeometry width="50" height="50" relative="1" as="geometry">
            <mxPoint x="34.2125" y="35.921052631578945" as="sourcePoint" />
            <mxPoint x="51.318749999999994" y="18.81578947368421" as="targetPoint" />
          </mxGeometry>
        </mxCell>
        <mxCell id="VMh6JowCz2_6mpAM9rTz-192" value="" style="endArrow=classic;html=1;rounded=0;exitX=1;exitY=0.5;exitDx=0;exitDy=0;entryX=0;entryY=0.5;entryDx=0;entryDy=0;strokeColor=#000000;" edge="1" parent="VMh6JowCz2_6mpAM9rTz-149" source="VMh6JowCz2_6mpAM9rTz-188" target="VMh6JowCz2_6mpAM9rTz-174">
          <mxGeometry width="50" height="50" relative="1" as="geometry">
            <mxPoint x="17.10625" y="18.81578947368421" as="sourcePoint" />
            <mxPoint x="27.37" y="18.81578947368421" as="targetPoint" />
          </mxGeometry>
        </mxCell>
        <mxCell id="VMh6JowCz2_6mpAM9rTz-193" value="" style="endArrow=classic;html=1;rounded=0;exitX=1;exitY=0.5;exitDx=0;exitDy=0;entryX=0;entryY=0.5;entryDx=0;entryDy=0;strokeColor=#000000;" edge="1" parent="VMh6JowCz2_6mpAM9rTz-149" source="VMh6JowCz2_6mpAM9rTz-188" target="VMh6JowCz2_6mpAM9rTz-175">
          <mxGeometry width="50" height="50" relative="1" as="geometry">
            <mxPoint x="17.10625" y="18.81578947368421" as="sourcePoint" />
            <mxPoint x="27.37" y="35.921052631578945" as="targetPoint" />
          </mxGeometry>
        </mxCell>
        <mxCell id="VMh6JowCz2_6mpAM9rTz-194" value="" style="endArrow=classic;html=1;rounded=0;exitX=1;exitY=0.5;exitDx=0;exitDy=0;entryX=0;entryY=0.5;entryDx=0;entryDy=0;strokeColor=#000000;" edge="1" parent="VMh6JowCz2_6mpAM9rTz-149" source="VMh6JowCz2_6mpAM9rTz-189" target="VMh6JowCz2_6mpAM9rTz-174">
          <mxGeometry width="50" height="50" relative="1" as="geometry">
            <mxPoint x="17.10625" y="18.81578947368421" as="sourcePoint" />
            <mxPoint x="27.37" y="53.02631578947368" as="targetPoint" />
          </mxGeometry>
        </mxCell>
        <mxCell id="VMh6JowCz2_6mpAM9rTz-195" value="" style="endArrow=classic;html=1;rounded=0;exitX=1;exitY=0.5;exitDx=0;exitDy=0;entryX=0;entryY=0.5;entryDx=0;entryDy=0;strokeColor=#000000;" edge="1" parent="VMh6JowCz2_6mpAM9rTz-149" source="VMh6JowCz2_6mpAM9rTz-189" target="VMh6JowCz2_6mpAM9rTz-173">
          <mxGeometry width="50" height="50" relative="1" as="geometry">
            <mxPoint x="17.10625" y="35.921052631578945" as="sourcePoint" />
            <mxPoint x="27.37" y="35.921052631578945" as="targetPoint" />
          </mxGeometry>
        </mxCell>
        <mxCell id="VMh6JowCz2_6mpAM9rTz-196" value="" style="endArrow=classic;html=1;rounded=0;exitX=1;exitY=0.5;exitDx=0;exitDy=0;entryX=0;entryY=0.5;entryDx=0;entryDy=0;strokeColor=#000000;" edge="1" parent="VMh6JowCz2_6mpAM9rTz-149" source="VMh6JowCz2_6mpAM9rTz-189" target="VMh6JowCz2_6mpAM9rTz-175">
          <mxGeometry width="50" height="50" relative="1" as="geometry">
            <mxPoint x="17.10625" y="35.921052631578945" as="sourcePoint" />
            <mxPoint x="27.37" y="18.81578947368421" as="targetPoint" />
          </mxGeometry>
        </mxCell>
        <mxCell id="VMh6JowCz2_6mpAM9rTz-197" value="" style="endArrow=classic;html=1;rounded=0;exitX=1;exitY=0.5;exitDx=0;exitDy=0;entryX=0;entryY=0.5;entryDx=0;entryDy=0;strokeColor=#000000;" edge="1" parent="VMh6JowCz2_6mpAM9rTz-149" source="VMh6JowCz2_6mpAM9rTz-190" target="VMh6JowCz2_6mpAM9rTz-175">
          <mxGeometry width="50" height="50" relative="1" as="geometry">
            <mxPoint x="17.10625" y="35.921052631578945" as="sourcePoint" />
            <mxPoint x="27.37" y="53.02631578947368" as="targetPoint" />
          </mxGeometry>
        </mxCell>
        <mxCell id="VMh6JowCz2_6mpAM9rTz-198" value="" style="endArrow=classic;html=1;rounded=0;exitX=1;exitY=0.5;exitDx=0;exitDy=0;entryX=0;entryY=0.5;entryDx=0;entryDy=0;strokeColor=#000000;" edge="1" parent="VMh6JowCz2_6mpAM9rTz-149" source="VMh6JowCz2_6mpAM9rTz-190" target="VMh6JowCz2_6mpAM9rTz-174">
          <mxGeometry width="50" height="50" relative="1" as="geometry">
            <mxPoint x="17.10625" y="53.02631578947368" as="sourcePoint" />
            <mxPoint x="27.37" y="53.02631578947368" as="targetPoint" />
          </mxGeometry>
        </mxCell>
        <mxCell id="VMh6JowCz2_6mpAM9rTz-199" value="" style="endArrow=classic;html=1;rounded=0;exitX=1;exitY=0.5;exitDx=0;exitDy=0;entryX=0;entryY=0.5;entryDx=0;entryDy=0;strokeColor=#000000;" edge="1" parent="VMh6JowCz2_6mpAM9rTz-149" source="VMh6JowCz2_6mpAM9rTz-190" target="VMh6JowCz2_6mpAM9rTz-173">
          <mxGeometry width="50" height="50" relative="1" as="geometry">
            <mxPoint x="17.10625" y="53.02631578947368" as="sourcePoint" />
            <mxPoint x="27.37" y="35.921052631578945" as="targetPoint" />
          </mxGeometry>
        </mxCell>
        <mxCell id="VMh6JowCz2_6mpAM9rTz-200" value="" style="group;strokeColor=none;" vertex="1" connectable="0" parent="1">
          <mxGeometry x="619.5" y="686.5" width="109.48" height="65" as="geometry" />
        </mxCell>
        <mxCell id="VMh6JowCz2_6mpAM9rTz-201" value="" style="ellipse;whiteSpace=wrap;html=1;aspect=fixed;strokeColor=#000000;" vertex="1" parent="VMh6JowCz2_6mpAM9rTz-200">
          <mxGeometry x="95.79499999999999" y="25.657894736842106" width="13.68421052631579" height="13.68421052631579" as="geometry" />
        </mxCell>
        <mxCell id="VMh6JowCz2_6mpAM9rTz-202" value="" style="ellipse;whiteSpace=wrap;html=1;aspect=fixed;strokeColor=#000000;" vertex="1" parent="VMh6JowCz2_6mpAM9rTz-200">
          <mxGeometry x="71.84625" y="8.552631578947368" width="13.68421052631579" height="13.68421052631579" as="geometry" />
        </mxCell>
        <mxCell id="VMh6JowCz2_6mpAM9rTz-203" value="" style="ellipse;whiteSpace=wrap;html=1;aspect=fixed;strokeColor=#000000;" vertex="1" parent="VMh6JowCz2_6mpAM9rTz-200">
          <mxGeometry x="71.84625" y="25.657894736842106" width="13.68421052631579" height="13.68421052631579" as="geometry" />
        </mxCell>
        <mxCell id="VMh6JowCz2_6mpAM9rTz-204" value="" style="ellipse;whiteSpace=wrap;html=1;aspect=fixed;strokeColor=#000000;" vertex="1" parent="VMh6JowCz2_6mpAM9rTz-200">
          <mxGeometry x="71.84625" y="42.763157894736835" width="13.68421052631579" height="13.68421052631579" as="geometry" />
        </mxCell>
        <mxCell id="VMh6JowCz2_6mpAM9rTz-205" value="" style="endArrow=classic;html=1;rounded=0;exitX=1;exitY=0.5;exitDx=0;exitDy=0;entryX=0;entryY=0.5;entryDx=0;entryDy=0;strokeColor=#000000;" edge="1" parent="VMh6JowCz2_6mpAM9rTz-200" source="VMh6JowCz2_6mpAM9rTz-202" target="VMh6JowCz2_6mpAM9rTz-201">
          <mxGeometry width="50" height="50" relative="1" as="geometry">
            <mxPoint x="112.90125" y="-18.81578947368421" as="sourcePoint" />
            <mxPoint x="130.0075" y="-35.921052631578945" as="targetPoint" />
          </mxGeometry>
        </mxCell>
        <mxCell id="VMh6JowCz2_6mpAM9rTz-206" value="" style="endArrow=classic;html=1;rounded=0;exitX=1;exitY=0.5;exitDx=0;exitDy=0;entryX=0;entryY=0.5;entryDx=0;entryDy=0;strokeColor=#000000;" edge="1" parent="VMh6JowCz2_6mpAM9rTz-200" source="VMh6JowCz2_6mpAM9rTz-203" target="VMh6JowCz2_6mpAM9rTz-201">
          <mxGeometry width="50" height="50" relative="1" as="geometry">
            <mxPoint x="82.11" y="18.81578947368421" as="sourcePoint" />
            <mxPoint x="88.9525" y="35.921052631578945" as="targetPoint" />
          </mxGeometry>
        </mxCell>
        <mxCell id="VMh6JowCz2_6mpAM9rTz-207" value="" style="endArrow=classic;html=1;rounded=0;exitX=1;exitY=0.5;exitDx=0;exitDy=0;entryX=0;entryY=0.5;entryDx=0;entryDy=0;strokeColor=#000000;" edge="1" parent="VMh6JowCz2_6mpAM9rTz-200" source="VMh6JowCz2_6mpAM9rTz-204" target="VMh6JowCz2_6mpAM9rTz-201">
          <mxGeometry width="50" height="50" relative="1" as="geometry">
            <mxPoint x="82.11" y="18.81578947368421" as="sourcePoint" />
            <mxPoint x="88.9525" y="35.921052631578945" as="targetPoint" />
          </mxGeometry>
        </mxCell>
        <mxCell id="VMh6JowCz2_6mpAM9rTz-208" value="" style="ellipse;whiteSpace=wrap;html=1;aspect=fixed;strokeColor=#000000;" vertex="1" parent="VMh6JowCz2_6mpAM9rTz-200">
          <mxGeometry x="47.897499999999994" width="13.68421052631579" height="13.68421052631579" as="geometry" />
        </mxCell>
        <mxCell id="VMh6JowCz2_6mpAM9rTz-209" value="" style="ellipse;whiteSpace=wrap;html=1;aspect=fixed;strokeColor=#000000;" vertex="1" parent="VMh6JowCz2_6mpAM9rTz-200">
          <mxGeometry x="47.897499999999994" y="17.105263157894736" width="13.68421052631579" height="13.68421052631579" as="geometry" />
        </mxCell>
        <mxCell id="VMh6JowCz2_6mpAM9rTz-210" value="" style="ellipse;whiteSpace=wrap;html=1;aspect=fixed;strokeColor=#000000;" vertex="1" parent="VMh6JowCz2_6mpAM9rTz-200">
          <mxGeometry x="47.897499999999994" y="34.21052631578947" width="13.68421052631579" height="13.68421052631579" as="geometry" />
        </mxCell>
        <mxCell id="VMh6JowCz2_6mpAM9rTz-211" value="" style="ellipse;whiteSpace=wrap;html=1;aspect=fixed;strokeColor=#000000;" vertex="1" parent="VMh6JowCz2_6mpAM9rTz-200">
          <mxGeometry x="47.897499999999994" y="51.31578947368421" width="13.68421052631579" height="13.68421052631579" as="geometry" />
        </mxCell>
        <mxCell id="VMh6JowCz2_6mpAM9rTz-212" value="" style="endArrow=classic;html=1;rounded=0;exitX=1;exitY=0.5;exitDx=0;exitDy=0;entryX=0;entryY=0.5;entryDx=0;entryDy=0;strokeColor=#000000;" edge="1" parent="VMh6JowCz2_6mpAM9rTz-200" source="VMh6JowCz2_6mpAM9rTz-208" target="VMh6JowCz2_6mpAM9rTz-202">
          <mxGeometry width="50" height="50" relative="1" as="geometry">
            <mxPoint x="112.90125" y="-18.81578947368421" as="sourcePoint" />
            <mxPoint x="130.0075" y="-35.921052631578945" as="targetPoint" />
          </mxGeometry>
        </mxCell>
        <mxCell id="VMh6JowCz2_6mpAM9rTz-213" value="" style="endArrow=classic;html=1;rounded=0;exitX=1;exitY=0.5;exitDx=0;exitDy=0;entryX=0;entryY=0.5;entryDx=0;entryDy=0;strokeColor=#000000;" edge="1" parent="VMh6JowCz2_6mpAM9rTz-200" source="VMh6JowCz2_6mpAM9rTz-209" target="VMh6JowCz2_6mpAM9rTz-202">
          <mxGeometry width="50" height="50" relative="1" as="geometry">
            <mxPoint x="65.00375" y="10.26315789473684" as="sourcePoint" />
            <mxPoint x="68.425" y="18.81578947368421" as="targetPoint" />
          </mxGeometry>
        </mxCell>
        <mxCell id="VMh6JowCz2_6mpAM9rTz-214" value="" style="endArrow=classic;html=1;rounded=0;exitX=1;exitY=0.5;exitDx=0;exitDy=0;entryX=0;entryY=0.5;entryDx=0;entryDy=0;strokeColor=#000000;" edge="1" parent="VMh6JowCz2_6mpAM9rTz-200" source="VMh6JowCz2_6mpAM9rTz-210" target="VMh6JowCz2_6mpAM9rTz-202">
          <mxGeometry width="50" height="50" relative="1" as="geometry">
            <mxPoint x="65.00375" y="27.36842105263158" as="sourcePoint" />
            <mxPoint x="68.425" y="18.81578947368421" as="targetPoint" />
          </mxGeometry>
        </mxCell>
        <mxCell id="VMh6JowCz2_6mpAM9rTz-215" value="" style="endArrow=classic;html=1;rounded=0;exitX=1;exitY=0.5;exitDx=0;exitDy=0;entryX=0;entryY=0.5;entryDx=0;entryDy=0;strokeColor=#000000;" edge="1" parent="VMh6JowCz2_6mpAM9rTz-200" source="VMh6JowCz2_6mpAM9rTz-211" target="VMh6JowCz2_6mpAM9rTz-202">
          <mxGeometry width="50" height="50" relative="1" as="geometry">
            <mxPoint x="65.00375" y="44.47368421052631" as="sourcePoint" />
            <mxPoint x="68.425" y="18.81578947368421" as="targetPoint" />
          </mxGeometry>
        </mxCell>
        <mxCell id="VMh6JowCz2_6mpAM9rTz-216" value="" style="endArrow=classic;html=1;rounded=0;exitX=1;exitY=0.5;exitDx=0;exitDy=0;entryX=0;entryY=0.5;entryDx=0;entryDy=0;strokeColor=#000000;" edge="1" parent="VMh6JowCz2_6mpAM9rTz-200" source="VMh6JowCz2_6mpAM9rTz-208" target="VMh6JowCz2_6mpAM9rTz-203">
          <mxGeometry width="50" height="50" relative="1" as="geometry">
            <mxPoint x="68.425" y="47.89473684210526" as="sourcePoint" />
            <mxPoint x="71.84625" y="22.236842105263154" as="targetPoint" />
          </mxGeometry>
        </mxCell>
        <mxCell id="VMh6JowCz2_6mpAM9rTz-217" value="" style="endArrow=classic;html=1;rounded=0;exitX=1;exitY=0.5;exitDx=0;exitDy=0;entryX=0;entryY=0.5;entryDx=0;entryDy=0;strokeColor=#000000;" edge="1" parent="VMh6JowCz2_6mpAM9rTz-200" source="VMh6JowCz2_6mpAM9rTz-208" target="VMh6JowCz2_6mpAM9rTz-204">
          <mxGeometry width="50" height="50" relative="1" as="geometry">
            <mxPoint x="65.00375" y="10.26315789473684" as="sourcePoint" />
            <mxPoint x="68.425" y="35.921052631578945" as="targetPoint" />
          </mxGeometry>
        </mxCell>
        <mxCell id="VMh6JowCz2_6mpAM9rTz-218" value="" style="endArrow=classic;html=1;rounded=0;exitX=1;exitY=0.5;exitDx=0;exitDy=0;entryX=0;entryY=0.5;entryDx=0;entryDy=0;strokeColor=#000000;" edge="1" parent="VMh6JowCz2_6mpAM9rTz-200" source="VMh6JowCz2_6mpAM9rTz-209" target="VMh6JowCz2_6mpAM9rTz-203">
          <mxGeometry width="50" height="50" relative="1" as="geometry">
            <mxPoint x="65.00375" y="10.26315789473684" as="sourcePoint" />
            <mxPoint x="68.425" y="53.02631578947368" as="targetPoint" />
          </mxGeometry>
        </mxCell>
        <mxCell id="VMh6JowCz2_6mpAM9rTz-219" value="" style="endArrow=classic;html=1;rounded=0;exitX=1;exitY=0.5;exitDx=0;exitDy=0;entryX=0;entryY=0.5;entryDx=0;entryDy=0;strokeColor=#000000;" edge="1" parent="VMh6JowCz2_6mpAM9rTz-200" source="VMh6JowCz2_6mpAM9rTz-209" target="VMh6JowCz2_6mpAM9rTz-204">
          <mxGeometry width="50" height="50" relative="1" as="geometry">
            <mxPoint x="65.00375" y="27.36842105263158" as="sourcePoint" />
            <mxPoint x="68.425" y="35.921052631578945" as="targetPoint" />
          </mxGeometry>
        </mxCell>
        <mxCell id="VMh6JowCz2_6mpAM9rTz-220" value="" style="endArrow=classic;html=1;rounded=0;exitX=1;exitY=0.5;exitDx=0;exitDy=0;entryX=0;entryY=0.5;entryDx=0;entryDy=0;strokeColor=#000000;" edge="1" parent="VMh6JowCz2_6mpAM9rTz-200" source="VMh6JowCz2_6mpAM9rTz-210" target="VMh6JowCz2_6mpAM9rTz-203">
          <mxGeometry width="50" height="50" relative="1" as="geometry">
            <mxPoint x="65.00375" y="27.36842105263158" as="sourcePoint" />
            <mxPoint x="68.425" y="53.02631578947368" as="targetPoint" />
          </mxGeometry>
        </mxCell>
        <mxCell id="VMh6JowCz2_6mpAM9rTz-221" value="" style="endArrow=classic;html=1;rounded=0;exitX=1;exitY=0.5;exitDx=0;exitDy=0;entryX=0;entryY=0.5;entryDx=0;entryDy=0;strokeColor=#000000;" edge="1" parent="VMh6JowCz2_6mpAM9rTz-200" source="VMh6JowCz2_6mpAM9rTz-210" target="VMh6JowCz2_6mpAM9rTz-204">
          <mxGeometry width="50" height="50" relative="1" as="geometry">
            <mxPoint x="65.00375" y="44.47368421052631" as="sourcePoint" />
            <mxPoint x="68.425" y="35.921052631578945" as="targetPoint" />
          </mxGeometry>
        </mxCell>
        <mxCell id="VMh6JowCz2_6mpAM9rTz-222" value="" style="endArrow=classic;html=1;rounded=0;exitX=1;exitY=0.5;exitDx=0;exitDy=0;entryX=0;entryY=0.5;entryDx=0;entryDy=0;strokeColor=#000000;" edge="1" parent="VMh6JowCz2_6mpAM9rTz-200" source="VMh6JowCz2_6mpAM9rTz-211" target="VMh6JowCz2_6mpAM9rTz-204">
          <mxGeometry width="50" height="50" relative="1" as="geometry">
            <mxPoint x="65.00375" y="44.47368421052631" as="sourcePoint" />
            <mxPoint x="68.425" y="53.02631578947368" as="targetPoint" />
          </mxGeometry>
        </mxCell>
        <mxCell id="VMh6JowCz2_6mpAM9rTz-223" value="" style="endArrow=classic;html=1;rounded=0;exitX=1;exitY=0.5;exitDx=0;exitDy=0;entryX=0;entryY=0.5;entryDx=0;entryDy=0;strokeColor=#000000;" edge="1" parent="VMh6JowCz2_6mpAM9rTz-200" source="VMh6JowCz2_6mpAM9rTz-211" target="VMh6JowCz2_6mpAM9rTz-203">
          <mxGeometry width="50" height="50" relative="1" as="geometry">
            <mxPoint x="65.00375" y="61.57894736842105" as="sourcePoint" />
            <mxPoint x="68.425" y="53.02631578947368" as="targetPoint" />
          </mxGeometry>
        </mxCell>
        <mxCell id="VMh6JowCz2_6mpAM9rTz-224" value="" style="ellipse;whiteSpace=wrap;html=1;aspect=fixed;strokeColor=#000000;" vertex="1" parent="VMh6JowCz2_6mpAM9rTz-200">
          <mxGeometry x="23.948749999999997" y="8.552631578947368" width="13.68421052631579" height="13.68421052631579" as="geometry" />
        </mxCell>
        <mxCell id="VMh6JowCz2_6mpAM9rTz-225" value="" style="ellipse;whiteSpace=wrap;html=1;aspect=fixed;strokeColor=#000000;" vertex="1" parent="VMh6JowCz2_6mpAM9rTz-200">
          <mxGeometry x="23.948749999999997" y="25.657894736842106" width="13.68421052631579" height="13.68421052631579" as="geometry" />
        </mxCell>
        <mxCell id="VMh6JowCz2_6mpAM9rTz-226" value="" style="ellipse;whiteSpace=wrap;html=1;aspect=fixed;strokeColor=#000000;" vertex="1" parent="VMh6JowCz2_6mpAM9rTz-200">
          <mxGeometry x="23.948749999999997" y="42.763157894736835" width="13.68421052631579" height="13.68421052631579" as="geometry" />
        </mxCell>
        <mxCell id="VMh6JowCz2_6mpAM9rTz-227" value="" style="endArrow=classic;html=1;rounded=0;exitX=1;exitY=0.5;exitDx=0;exitDy=0;entryX=0;entryY=0.5;entryDx=0;entryDy=0;strokeColor=#000000;" edge="1" parent="VMh6JowCz2_6mpAM9rTz-200" source="VMh6JowCz2_6mpAM9rTz-224" target="VMh6JowCz2_6mpAM9rTz-208">
          <mxGeometry width="50" height="50" relative="1" as="geometry">
            <mxPoint x="61.582499999999996" y="35.921052631578945" as="sourcePoint" />
            <mxPoint x="78.68875" y="18.81578947368421" as="targetPoint" />
          </mxGeometry>
        </mxCell>
        <mxCell id="VMh6JowCz2_6mpAM9rTz-228" value="" style="endArrow=classic;html=1;rounded=0;exitX=1;exitY=0.5;exitDx=0;exitDy=0;entryX=0;entryY=0.5;entryDx=0;entryDy=0;strokeColor=#000000;" edge="1" parent="VMh6JowCz2_6mpAM9rTz-200" source="VMh6JowCz2_6mpAM9rTz-224" target="VMh6JowCz2_6mpAM9rTz-209">
          <mxGeometry width="50" height="50" relative="1" as="geometry">
            <mxPoint x="41.055" y="18.81578947368421" as="sourcePoint" />
            <mxPoint x="51.318749999999994" y="10.26315789473684" as="targetPoint" />
          </mxGeometry>
        </mxCell>
        <mxCell id="VMh6JowCz2_6mpAM9rTz-229" value="" style="endArrow=classic;html=1;rounded=0;exitX=1;exitY=0.5;exitDx=0;exitDy=0;entryX=0;entryY=0.5;entryDx=0;entryDy=0;strokeColor=#000000;" edge="1" parent="VMh6JowCz2_6mpAM9rTz-200" source="VMh6JowCz2_6mpAM9rTz-224" target="VMh6JowCz2_6mpAM9rTz-210">
          <mxGeometry width="50" height="50" relative="1" as="geometry">
            <mxPoint x="41.055" y="18.81578947368421" as="sourcePoint" />
            <mxPoint x="51.318749999999994" y="27.36842105263158" as="targetPoint" />
          </mxGeometry>
        </mxCell>
        <mxCell id="VMh6JowCz2_6mpAM9rTz-230" value="" style="endArrow=classic;html=1;rounded=0;exitX=1;exitY=0.5;exitDx=0;exitDy=0;entryX=0;entryY=0.5;entryDx=0;entryDy=0;strokeColor=#000000;" edge="1" parent="VMh6JowCz2_6mpAM9rTz-200" source="VMh6JowCz2_6mpAM9rTz-224" target="VMh6JowCz2_6mpAM9rTz-211">
          <mxGeometry width="50" height="50" relative="1" as="geometry">
            <mxPoint x="41.055" y="18.81578947368421" as="sourcePoint" />
            <mxPoint x="51.318749999999994" y="44.47368421052631" as="targetPoint" />
          </mxGeometry>
        </mxCell>
        <mxCell id="VMh6JowCz2_6mpAM9rTz-231" value="" style="endArrow=classic;html=1;rounded=0;exitX=1;exitY=0.5;exitDx=0;exitDy=0;entryX=0;entryY=0.5;entryDx=0;entryDy=0;strokeColor=#000000;" edge="1" parent="VMh6JowCz2_6mpAM9rTz-200" source="VMh6JowCz2_6mpAM9rTz-225" target="VMh6JowCz2_6mpAM9rTz-208">
          <mxGeometry width="50" height="50" relative="1" as="geometry">
            <mxPoint x="41.055" y="18.81578947368421" as="sourcePoint" />
            <mxPoint x="51.318749999999994" y="61.57894736842105" as="targetPoint" />
          </mxGeometry>
        </mxCell>
        <mxCell id="VMh6JowCz2_6mpAM9rTz-232" value="" style="endArrow=classic;html=1;rounded=0;exitX=1;exitY=0.5;exitDx=0;exitDy=0;entryX=0;entryY=0.5;entryDx=0;entryDy=0;strokeColor=#000000;" edge="1" parent="VMh6JowCz2_6mpAM9rTz-200" source="VMh6JowCz2_6mpAM9rTz-225" target="VMh6JowCz2_6mpAM9rTz-209">
          <mxGeometry width="50" height="50" relative="1" as="geometry">
            <mxPoint x="41.055" y="35.921052631578945" as="sourcePoint" />
            <mxPoint x="51.318749999999994" y="10.26315789473684" as="targetPoint" />
          </mxGeometry>
        </mxCell>
        <mxCell id="VMh6JowCz2_6mpAM9rTz-233" value="" style="endArrow=classic;html=1;rounded=0;exitX=1;exitY=0.5;exitDx=0;exitDy=0;entryX=0;entryY=0.5;entryDx=0;entryDy=0;strokeColor=#000000;" edge="1" parent="VMh6JowCz2_6mpAM9rTz-200" source="VMh6JowCz2_6mpAM9rTz-225" target="VMh6JowCz2_6mpAM9rTz-210">
          <mxGeometry width="50" height="50" relative="1" as="geometry">
            <mxPoint x="41.055" y="35.921052631578945" as="sourcePoint" />
            <mxPoint x="51.318749999999994" y="27.36842105263158" as="targetPoint" />
          </mxGeometry>
        </mxCell>
        <mxCell id="VMh6JowCz2_6mpAM9rTz-234" value="" style="endArrow=classic;html=1;rounded=0;exitX=1;exitY=0.5;exitDx=0;exitDy=0;entryX=0;entryY=0.5;entryDx=0;entryDy=0;strokeColor=#000000;" edge="1" parent="VMh6JowCz2_6mpAM9rTz-200" source="VMh6JowCz2_6mpAM9rTz-225" target="VMh6JowCz2_6mpAM9rTz-211">
          <mxGeometry width="50" height="50" relative="1" as="geometry">
            <mxPoint x="41.055" y="35.921052631578945" as="sourcePoint" />
            <mxPoint x="51.318749999999994" y="44.47368421052631" as="targetPoint" />
          </mxGeometry>
        </mxCell>
        <mxCell id="VMh6JowCz2_6mpAM9rTz-235" value="" style="endArrow=classic;html=1;rounded=0;exitX=1;exitY=0.5;exitDx=0;exitDy=0;entryX=0;entryY=0.5;entryDx=0;entryDy=0;strokeColor=#000000;" edge="1" parent="VMh6JowCz2_6mpAM9rTz-200" source="VMh6JowCz2_6mpAM9rTz-226" target="VMh6JowCz2_6mpAM9rTz-211">
          <mxGeometry width="50" height="50" relative="1" as="geometry">
            <mxPoint x="41.055" y="35.921052631578945" as="sourcePoint" />
            <mxPoint x="51.318749999999994" y="61.57894736842105" as="targetPoint" />
          </mxGeometry>
        </mxCell>
        <mxCell id="VMh6JowCz2_6mpAM9rTz-236" value="" style="endArrow=classic;html=1;rounded=0;exitX=1;exitY=0.5;exitDx=0;exitDy=0;entryX=0;entryY=0.5;entryDx=0;entryDy=0;strokeColor=#000000;" edge="1" parent="VMh6JowCz2_6mpAM9rTz-200" source="VMh6JowCz2_6mpAM9rTz-226" target="VMh6JowCz2_6mpAM9rTz-210">
          <mxGeometry width="50" height="50" relative="1" as="geometry">
            <mxPoint x="41.055" y="53.02631578947368" as="sourcePoint" />
            <mxPoint x="51.318749999999994" y="61.57894736842105" as="targetPoint" />
          </mxGeometry>
        </mxCell>
        <mxCell id="VMh6JowCz2_6mpAM9rTz-237" value="" style="endArrow=classic;html=1;rounded=0;exitX=1;exitY=0.5;exitDx=0;exitDy=0;entryX=0;entryY=0.5;entryDx=0;entryDy=0;strokeColor=#000000;" edge="1" parent="VMh6JowCz2_6mpAM9rTz-200" source="VMh6JowCz2_6mpAM9rTz-226" target="VMh6JowCz2_6mpAM9rTz-209">
          <mxGeometry width="50" height="50" relative="1" as="geometry">
            <mxPoint x="41.055" y="53.02631578947368" as="sourcePoint" />
            <mxPoint x="51.318749999999994" y="44.47368421052631" as="targetPoint" />
          </mxGeometry>
        </mxCell>
        <mxCell id="VMh6JowCz2_6mpAM9rTz-238" value="" style="endArrow=classic;html=1;rounded=0;exitX=1;exitY=0.5;exitDx=0;exitDy=0;entryX=0;entryY=0.5;entryDx=0;entryDy=0;strokeColor=#000000;" edge="1" parent="VMh6JowCz2_6mpAM9rTz-200" source="VMh6JowCz2_6mpAM9rTz-226" target="VMh6JowCz2_6mpAM9rTz-208">
          <mxGeometry width="50" height="50" relative="1" as="geometry">
            <mxPoint x="41.055" y="53.02631578947368" as="sourcePoint" />
            <mxPoint x="51.318749999999994" y="27.36842105263158" as="targetPoint" />
          </mxGeometry>
        </mxCell>
        <mxCell id="VMh6JowCz2_6mpAM9rTz-239" value="" style="ellipse;whiteSpace=wrap;html=1;aspect=fixed;strokeColor=#000000;" vertex="1" parent="VMh6JowCz2_6mpAM9rTz-200">
          <mxGeometry y="8.552631578947368" width="13.68421052631579" height="13.68421052631579" as="geometry" />
        </mxCell>
        <mxCell id="VMh6JowCz2_6mpAM9rTz-240" value="" style="ellipse;whiteSpace=wrap;html=1;aspect=fixed;strokeColor=#000000;" vertex="1" parent="VMh6JowCz2_6mpAM9rTz-200">
          <mxGeometry y="25.657894736842106" width="13.68421052631579" height="13.68421052631579" as="geometry" />
        </mxCell>
        <mxCell id="VMh6JowCz2_6mpAM9rTz-241" value="" style="ellipse;whiteSpace=wrap;html=1;aspect=fixed;strokeColor=#000000;" vertex="1" parent="VMh6JowCz2_6mpAM9rTz-200">
          <mxGeometry y="42.763157894736835" width="13.68421052631579" height="13.68421052631579" as="geometry" />
        </mxCell>
        <mxCell id="VMh6JowCz2_6mpAM9rTz-242" value="" style="endArrow=classic;html=1;rounded=0;exitX=1;exitY=0.5;exitDx=0;exitDy=0;entryX=0;entryY=0.5;entryDx=0;entryDy=0;strokeColor=#000000;" edge="1" parent="VMh6JowCz2_6mpAM9rTz-200" source="VMh6JowCz2_6mpAM9rTz-239" target="VMh6JowCz2_6mpAM9rTz-224">
          <mxGeometry width="50" height="50" relative="1" as="geometry">
            <mxPoint x="34.2125" y="35.921052631578945" as="sourcePoint" />
            <mxPoint x="51.318749999999994" y="18.81578947368421" as="targetPoint" />
          </mxGeometry>
        </mxCell>
        <mxCell id="VMh6JowCz2_6mpAM9rTz-243" value="" style="endArrow=classic;html=1;rounded=0;exitX=1;exitY=0.5;exitDx=0;exitDy=0;entryX=0;entryY=0.5;entryDx=0;entryDy=0;strokeColor=#000000;" edge="1" parent="VMh6JowCz2_6mpAM9rTz-200" source="VMh6JowCz2_6mpAM9rTz-239" target="VMh6JowCz2_6mpAM9rTz-225">
          <mxGeometry width="50" height="50" relative="1" as="geometry">
            <mxPoint x="17.10625" y="18.81578947368421" as="sourcePoint" />
            <mxPoint x="27.37" y="18.81578947368421" as="targetPoint" />
          </mxGeometry>
        </mxCell>
        <mxCell id="VMh6JowCz2_6mpAM9rTz-244" value="" style="endArrow=classic;html=1;rounded=0;exitX=1;exitY=0.5;exitDx=0;exitDy=0;entryX=0;entryY=0.5;entryDx=0;entryDy=0;strokeColor=#000000;" edge="1" parent="VMh6JowCz2_6mpAM9rTz-200" source="VMh6JowCz2_6mpAM9rTz-239" target="VMh6JowCz2_6mpAM9rTz-226">
          <mxGeometry width="50" height="50" relative="1" as="geometry">
            <mxPoint x="17.10625" y="18.81578947368421" as="sourcePoint" />
            <mxPoint x="27.37" y="35.921052631578945" as="targetPoint" />
          </mxGeometry>
        </mxCell>
        <mxCell id="VMh6JowCz2_6mpAM9rTz-245" value="" style="endArrow=classic;html=1;rounded=0;exitX=1;exitY=0.5;exitDx=0;exitDy=0;entryX=0;entryY=0.5;entryDx=0;entryDy=0;strokeColor=#000000;" edge="1" parent="VMh6JowCz2_6mpAM9rTz-200" source="VMh6JowCz2_6mpAM9rTz-240" target="VMh6JowCz2_6mpAM9rTz-225">
          <mxGeometry width="50" height="50" relative="1" as="geometry">
            <mxPoint x="17.10625" y="18.81578947368421" as="sourcePoint" />
            <mxPoint x="27.37" y="53.02631578947368" as="targetPoint" />
          </mxGeometry>
        </mxCell>
        <mxCell id="VMh6JowCz2_6mpAM9rTz-246" value="" style="endArrow=classic;html=1;rounded=0;exitX=1;exitY=0.5;exitDx=0;exitDy=0;entryX=0;entryY=0.5;entryDx=0;entryDy=0;strokeColor=#000000;" edge="1" parent="VMh6JowCz2_6mpAM9rTz-200" source="VMh6JowCz2_6mpAM9rTz-240" target="VMh6JowCz2_6mpAM9rTz-224">
          <mxGeometry width="50" height="50" relative="1" as="geometry">
            <mxPoint x="17.10625" y="35.921052631578945" as="sourcePoint" />
            <mxPoint x="27.37" y="35.921052631578945" as="targetPoint" />
          </mxGeometry>
        </mxCell>
        <mxCell id="VMh6JowCz2_6mpAM9rTz-247" value="" style="endArrow=classic;html=1;rounded=0;exitX=1;exitY=0.5;exitDx=0;exitDy=0;entryX=0;entryY=0.5;entryDx=0;entryDy=0;strokeColor=#000000;" edge="1" parent="VMh6JowCz2_6mpAM9rTz-200" source="VMh6JowCz2_6mpAM9rTz-240" target="VMh6JowCz2_6mpAM9rTz-226">
          <mxGeometry width="50" height="50" relative="1" as="geometry">
            <mxPoint x="17.10625" y="35.921052631578945" as="sourcePoint" />
            <mxPoint x="27.37" y="18.81578947368421" as="targetPoint" />
          </mxGeometry>
        </mxCell>
        <mxCell id="VMh6JowCz2_6mpAM9rTz-248" value="" style="endArrow=classic;html=1;rounded=0;exitX=1;exitY=0.5;exitDx=0;exitDy=0;entryX=0;entryY=0.5;entryDx=0;entryDy=0;strokeColor=#000000;" edge="1" parent="VMh6JowCz2_6mpAM9rTz-200" source="VMh6JowCz2_6mpAM9rTz-241" target="VMh6JowCz2_6mpAM9rTz-226">
          <mxGeometry width="50" height="50" relative="1" as="geometry">
            <mxPoint x="17.10625" y="35.921052631578945" as="sourcePoint" />
            <mxPoint x="27.37" y="53.02631578947368" as="targetPoint" />
          </mxGeometry>
        </mxCell>
        <mxCell id="VMh6JowCz2_6mpAM9rTz-249" value="" style="endArrow=classic;html=1;rounded=0;exitX=1;exitY=0.5;exitDx=0;exitDy=0;entryX=0;entryY=0.5;entryDx=0;entryDy=0;strokeColor=#000000;" edge="1" parent="VMh6JowCz2_6mpAM9rTz-200" source="VMh6JowCz2_6mpAM9rTz-241" target="VMh6JowCz2_6mpAM9rTz-225">
          <mxGeometry width="50" height="50" relative="1" as="geometry">
            <mxPoint x="17.10625" y="53.02631578947368" as="sourcePoint" />
            <mxPoint x="27.37" y="53.02631578947368" as="targetPoint" />
          </mxGeometry>
        </mxCell>
        <mxCell id="VMh6JowCz2_6mpAM9rTz-250" value="" style="endArrow=classic;html=1;rounded=0;exitX=1;exitY=0.5;exitDx=0;exitDy=0;entryX=0;entryY=0.5;entryDx=0;entryDy=0;strokeColor=#000000;" edge="1" parent="VMh6JowCz2_6mpAM9rTz-200" source="VMh6JowCz2_6mpAM9rTz-241" target="VMh6JowCz2_6mpAM9rTz-224">
          <mxGeometry width="50" height="50" relative="1" as="geometry">
            <mxPoint x="17.10625" y="53.02631578947368" as="sourcePoint" />
            <mxPoint x="27.37" y="35.921052631578945" as="targetPoint" />
          </mxGeometry>
        </mxCell>
        <mxCell id="VMh6JowCz2_6mpAM9rTz-251" style="edgeStyle=orthogonalEdgeStyle;rounded=0;orthogonalLoop=1;jettySize=auto;html=1;exitX=1;exitY=0.5;exitDx=0;exitDy=0;strokeColor=#000000;" edge="1" parent="1" source="VMh6JowCz2_6mpAM9rTz-98" target="VMh6JowCz2_6mpAM9rTz-95">
          <mxGeometry relative="1" as="geometry" />
        </mxCell>
        <mxCell id="VMh6JowCz2_6mpAM9rTz-252" style="edgeStyle=orthogonalEdgeStyle;rounded=0;orthogonalLoop=1;jettySize=auto;html=1;exitX=1;exitY=0.5;exitDx=0;exitDy=0;strokeColor=#000000;" edge="1" parent="1" source="VMh6JowCz2_6mpAM9rTz-150" target="VMh6JowCz2_6mpAM9rTz-96">
          <mxGeometry relative="1" as="geometry" />
        </mxCell>
        <mxCell id="VMh6JowCz2_6mpAM9rTz-253" style="edgeStyle=orthogonalEdgeStyle;rounded=0;orthogonalLoop=1;jettySize=auto;html=1;exitX=1;exitY=0.5;exitDx=0;exitDy=0;entryX=0;entryY=0.5;entryDx=0;entryDy=0;strokeColor=#000000;" edge="1" parent="1" source="VMh6JowCz2_6mpAM9rTz-201" target="VMh6JowCz2_6mpAM9rTz-97">
          <mxGeometry relative="1" as="geometry" />
        </mxCell>
        <mxCell id="VMh6JowCz2_6mpAM9rTz-258" style="edgeStyle=orthogonalEdgeStyle;rounded=0;orthogonalLoop=1;jettySize=auto;html=1;exitX=1;exitY=0.5;exitDx=0;exitDy=0;strokeColor=#000000;" edge="1" parent="1" source="VMh6JowCz2_6mpAM9rTz-254">
          <mxGeometry relative="1" as="geometry">
            <mxPoint x="606.5" y="559" as="targetPoint" />
          </mxGeometry>
        </mxCell>
        <mxCell id="VMh6JowCz2_6mpAM9rTz-254" value="Features of Choice 1" style="text;html=1;align=center;verticalAlign=middle;whiteSpace=wrap;rounded=0;strokeColor=none;fontColor=#000000;" vertex="1" parent="1">
          <mxGeometry x="469" y="544" width="77.5" height="30" as="geometry" />
        </mxCell>
        <mxCell id="VMh6JowCz2_6mpAM9rTz-257" style="edgeStyle=orthogonalEdgeStyle;rounded=0;orthogonalLoop=1;jettySize=auto;html=1;exitX=1;exitY=0.5;exitDx=0;exitDy=0;strokeColor=#000000;" edge="1" parent="1" source="VMh6JowCz2_6mpAM9rTz-255">
          <mxGeometry relative="1" as="geometry">
            <mxPoint x="606.5" y="639" as="targetPoint" />
          </mxGeometry>
        </mxCell>
        <mxCell id="VMh6JowCz2_6mpAM9rTz-255" value="Features of Choice 2" style="text;html=1;align=center;verticalAlign=middle;whiteSpace=wrap;rounded=0;strokeColor=none;fontColor=#000000;" vertex="1" parent="1">
          <mxGeometry x="469" y="624" width="77.5" height="30" as="geometry" />
        </mxCell>
        <mxCell id="VMh6JowCz2_6mpAM9rTz-256" value="Features of Choice n" style="text;html=1;align=center;verticalAlign=middle;whiteSpace=wrap;rounded=0;strokeColor=none;fontColor=#000000;" vertex="1" parent="1">
          <mxGeometry x="469" y="704" width="77.5" height="30" as="geometry" />
        </mxCell>
        <mxCell id="VMh6JowCz2_6mpAM9rTz-259" style="edgeStyle=orthogonalEdgeStyle;rounded=0;orthogonalLoop=1;jettySize=auto;html=1;exitX=1;exitY=0.5;exitDx=0;exitDy=0;strokeColor=#000000;" edge="1" parent="1">
          <mxGeometry relative="1" as="geometry">
            <mxPoint x="546.5" y="718.71" as="sourcePoint" />
            <mxPoint x="606.5" y="718.71" as="targetPoint" />
          </mxGeometry>
        </mxCell>
        <mxCell id="VMh6JowCz2_6mpAM9rTz-261" value="" style="endArrow=none;dashed=1;html=1;rounded=0;strokeColor=#000000;" edge="1" parent="1">
          <mxGeometry width="50" height="50" relative="1" as="geometry">
            <mxPoint x="736.5" y="759" as="sourcePoint" />
            <mxPoint x="736.5" y="519" as="targetPoint" />
          </mxGeometry>
        </mxCell>
        <mxCell id="VMh6JowCz2_6mpAM9rTz-262" value="Softmax Activation" style="text;html=1;align=center;verticalAlign=middle;whiteSpace=wrap;rounded=0;strokeColor=none;fontColor=#000000;" vertex="1" parent="1">
          <mxGeometry x="697.75" y="479" width="78.75" height="30" as="geometry" />
        </mxCell>
        <mxCell id="VMh6JowCz2_6mpAM9rTz-263" value="" style="shape=curlyBracket;whiteSpace=wrap;html=1;rounded=1;flipH=1;labelPosition=right;verticalLabelPosition=middle;align=left;verticalAlign=middle;rotation=90;strokeColor=#000000;" vertex="1" parent="1">
          <mxGeometry x="767.75" y="740.25" width="20" height="42.5" as="geometry" />
        </mxCell>
        <mxCell id="VMh6JowCz2_6mpAM9rTz-264" value="Probabilities of Choices" style="text;html=1;align=center;verticalAlign=middle;whiteSpace=wrap;rounded=0;strokeColor=none;fontColor=#000000;" vertex="1" parent="1">
          <mxGeometry x="719" y="779" width="117.5" height="30" as="geometry" />
        </mxCell>
        <mxCell id="VMh6JowCz2_6mpAM9rTz-266" value="Combined Log Odds Models" style="text;html=1;align=center;verticalAlign=middle;whiteSpace=wrap;rounded=0;strokeColor=none;fontColor=#000000;" vertex="1" parent="1">
          <mxGeometry x="466.5" y="474" width="93.5" height="40" as="geometry" />
        </mxCell>
      </root>
    </mxGraphModel>
  </diagram>
</mxfile>
